<svg xmlns="http://www.w3.org/2000/svg" width="1536" height="1024"><path fill="#0A233D" d="M770 125c2.581 1.456 5.06 3.038 7.563 4.625 2.3 1.447 2.3 1.447 4.562 1.875 2.37.632 3.197 1.74 4.875 3.5q2.207 1.417 4.5 2.688l2.344 1.324c2.215 1.196 2.215 1.196 5.156.988v2a603 603 0 0 0 7.438 4.438l2.083 1.275c5.239 3.045 9.427 3.96 15.479 4.287v4q1.871.975 3.75 1.938l2.11 1.09c2.042.928 3.951 1.504 6.14 1.972l-2 1c1.02.56 2.042 1.119 3.094 1.695 9.847 5.421 19.587 11.005 29.283 16.69 9.295 5.443 18.643 10.788 28.007 16.11 5.92 3.37 11.798 6.784 17.597 10.359 2.11 1.284 2.11 1.284 5.019 2.146l2.25 1.875c4.373 3.38 8.207 5.125 13.75 5.125l.625 1.762c1.906 3.103 4.231 4.256 7.375 6.05l3.25 1.895L947 227l2-1 1 3c1.569 1.236 1.569 1.236 3.527 2.262l2.15 1.2 2.26 1.226c.742.415 1.484.83 2.249 1.26 3.698 2.254 3.698 2.254 7.814 3.052l1 2h7l-1 3c7.507 4.742 14.963 9.201 23 13 2 1 2 1 4.125 2.773 3.449 2.671 7.066 4.743 10.875 6.852l2.117 1.195c6.558 3.842 6.558 3.842 13.883 5.18l1 3c5.42 3.686 10.468 5.71 17 5 .563 1.938.563 1.938 1 4l-1 1 2.117 1.059C1059 291 1059 291 1061.437 293c3.592 2.803 6.133 3.12 10.563 3l.188 1.75c.66 2.502.66 2.502 3.324 4.01 2.488 2.24 2.488 2.24 3.113 5.032v3.29l.036 3.803-.037 4.185q.006 2.22.02 4.44c.017 4.072.003 8.145-.016 12.217-.016 4.39-.002 8.78.007 13.17.014 8.603 0 17.206-.025 25.809q-.03 10.486-.037 20.973-.031 32.958-.14 65.916c-.054 17.343-.063 34.684-.05 52.027q.02 26.697-.064 53.393a6098 6098 0 0 0-.03 29.988q.026 12.764-.056 25.529c-.028 4.343-.041 8.685-.015 13.029.023 3.976.004 7.949-.047 11.924a195 195 0 0 0 .013 4.317c.142 10.753.142 10.753-3.15 14.342-2.29 1.553-4.51 2.733-7.034 3.856l-3.227 1.944-2.968 1.685-3.386 1.929-3.544 2.005-3.698 2.102A6411 6411 0 0 1 1040 685l-3.431 1.943q-7.416 4.198-14.839 8.385-5.876 3.317-11.73 6.672v2l-2.125.313c-3.266.78-5.922 2.108-8.875 3.687l1 3c-3 1-3 1-6 0-2.504 1.207-2.504 1.207-5.062 2.938C984.187 717 984.187 717 982 717v3l-2.125.313c-3.266.78-5.922 2.108-8.875 3.687v2l-2.129.297c-3.378.827-5.808 2.188-8.808 3.953l-1.777 1.037c-2.1 1.229-4.194 2.47-6.286 3.713q-4.152 2.46-8.305 4.917-2.81 1.665-5.615 3.338a459 459 0 0 1-16.211 9.19c-8.847 4.793-17.621 9.72-26.406 14.624q-3.366 1.878-6.738 3.744a2019 2019 0 0 0-8.85 4.937l-2.69 1.481-2.443 1.378-2.13 1.187c-1.928 1.201-1.928 1.201-2.612 4.204l-2.653.32c-3.485.708-5.82 1.79-8.894 3.551l-3.058 1.74-3.145 1.827-3.191 1.814c-5.357 2.934-5.357 2.934-10.059 6.748-2.196 1.12-4.4 2.192-6.625 3.25-12.41 6.036-24.386 13.113-36.073 20.442C794 825 794 825 792 825l-1 2a134 134 0 0 1-6 3v2l-2.125.273c-4.523 1.144-8.048 3.818-11.937 6.329C768 840 768 840 765.418 839.875c-3.42-1.237-6.334-3.03-9.43-4.914L754 834l-2 1v-3l-2.055-.746c-3.525-1.5-6.775-3.377-10.07-5.317-4.765-2.822-4.765-2.822-9.875-4.937l-2-1.687c-3.452-2.661-7.038-4.616-10.883-6.653a291 291 0 0 1-6.547-3.601l-3.445-1.934-3.18-1.805c-2.963-1.328-4.748-1.615-7.945-1.32v-4h-8l-.062-1.75c-1.23-2.953-3.112-4.028-5.883-5.5-3.432-1.253-6.435-1.004-10.055-.75l-.243-2.321c-.947-3.352-1.88-3.865-4.87-5.538l-2.533-1.442-2.667-1.449-2.63-1.496c-5.29-2.975-5.29-2.975-11.057-4.754l1-1-2.309-1.102c-5.832-2.84-11.315-5.82-16.652-9.507-5.142-3.799-5.142-3.799-11.039-5.391l-1 2h-2v-5l-3.48-1.906q-2.355-1.296-4.707-2.594l-2.48-1.363a228 228 0 0 1-14.395-8.7C585.777 737.183 582.087 736 576 736v-5l-2.75-.875C570 729 570 729 568 727.813c-2.87-1.167-5.042-.485-8 .187v-5l-3.41-1.871q-2.327-1.282-4.653-2.567l-2.46-1.353c-3.981-2.205-7.916-4.447-11.766-6.877l-2-1.254a196 196 0 0 1-3.674-2.384c-4.15-2.62-7.177-3.077-12.037-2.694l3-3h-3l-1 2-2-1 1-3c-1.264-.7-2.537-1.384-3.812-2.062l-2.145-1.16c-2.19-1.08-2.19-1.08-5.043.222l-.23-1.871c-.574-2.287-.574-2.287-2.696-3.29l-2.387-.902c-3.281-1.322-5.988-2.59-8.687-4.937l-1 3-4-1 1-4a2531 2531 0 0 0-7.687-4.875l-2.186-1.395c-6.254-4.37-6.254-4.37-13.44-5.355L464 672v-4c-1.74-1.217-1.74-1.217-3.938-2.125-3.828-2.23-3.828-2.23-4.815-4.954-.271-2.668-.298-5.243-.242-7.925l-.032-3.067c-.026-3.387.005-6.772.035-10.159q-.01-3.638-.032-7.274c-.025-5.84-.016-11.678.008-17.517.026-7.142-.011-14.283-.049-21.424a8333 8333 0 0 1-.07-43.255 24058 24058 0 0 0 0-22.623q-.004-21.414.006-42.828.006-18.25-.001-36.501a72535 72535 0 0 1-.004-47.435v-2.277q.002-7.829-.002-15.656-.004-9.55.003-19.097.004-4.842 0-9.684c-.013-17.422.399-34.793 1.133-52.199l2.33-.907c2.94-1.204 5.545-2.681 8.275-4.304l3.197-1.89L473 293q2.805-1.647 5.613-3.29l2.808-1.643a1995 1995 0 0 1 27.829-16.005l2.896-1.636c3.977-2.247 7.957-4.487 11.96-6.688l3.332-1.863 2.746-1.508L532 259v-3l2.75-.062c6.02-.829 11.347-4.53 16.25-7.938l2-3h3a120 120 0 0 0 6.242-3.395l1.835-1.054c1.936-1.115 3.867-2.24 5.798-3.363q1.94-1.12 3.879-2.237c6.559-3.768 6.559-3.768 13.028-7.688C589 226 589 226 591 226l1-2a141 141 0 0 1 6.375-3.437c6.155-3.204 12.193-6.569 18.188-10.063l2.45-1.427 4.771-2.783c3.126-1.82 6.263-3.62 9.404-5.415l3.304-1.89a692 692 0 0 1 7.89-4.407l2.234-1.238a732 732 0 0 1 4.32-2.372c3.65-1.837 3.65-1.837 6.064-4.968l-2-1h4c2.646-.312 2.646-.312 5-1l1-2a66 66 0 0 1 4.313-2.187c6.092-2.945 11.878-6.35 17.687-9.813l-1-2 2.375-.125c4.449-1.074 7.631-3.137 11.453-5.598C702 161 702 161 704 161l1-3h3c1.931-.864 1.931-.864 3.973-2.098l2.44-1.408 2.65-1.556 5.66-3.286 3.055-1.781c3.397-1.972 6.806-3.922 10.218-5.867q2.639-1.507 5.276-3.017 2.552-1.457 5.107-2.91l3.183-1.827 2.817-1.61c2.72-1.702 5.133-3.619 7.621-5.64 5.874-3.476 5.874-3.476 10-2m298 172 1 2 2-1z"/><path fill="#37F7E5" d="M770 125c2.581 1.456 5.06 3.038 7.563 4.625 2.3 1.447 2.3 1.447 4.562 1.875 2.37.632 3.197 1.74 4.875 3.5q2.207 1.417 4.5 2.688l2.344 1.324c2.215 1.196 2.215 1.196 5.156.988v2a603 603 0 0 0 7.438 4.438l2.083 1.275c5.239 3.045 9.427 3.96 15.479 4.287v4q1.871.975 3.75 1.938l2.11 1.09c2.042.928 3.951 1.504 6.14 1.972l-2 1c1.02.56 2.042 1.119 3.094 1.695 9.847 5.421 19.587 11.005 29.283 16.69 9.295 5.443 18.643 10.788 28.007 16.11 5.92 3.37 11.798 6.784 17.597 10.359 2.11 1.284 2.11 1.284 5.019 2.146l2.25 1.875c4.373 3.38 8.207 5.125 13.75 5.125l.625 1.762c1.906 3.103 4.231 4.256 7.375 6.05l3.25 1.895L947 227l2-1 1 3c1.569 1.236 1.569 1.236 3.527 2.262l2.15 1.2 2.26 1.226c.742.415 1.484.83 2.249 1.26 3.698 2.254 3.698 2.254 7.814 3.052l1 2h7l-1 3c7.507 4.742 14.963 9.201 23 13 2 1 2 1 4.125 2.773 3.449 2.671 7.066 4.743 10.875 6.852l2.117 1.195c6.558 3.842 6.558 3.842 13.883 5.18l1 3c5.42 3.686 10.468 5.71 17 5 .563 1.938.563 1.938 1 4l-1 1 2.117 1.059C1059 291 1059 291 1061.437 293c3.592 2.803 6.133 3.12 10.563 3l.188 1.75c.66 2.502.66 2.502 3.324 4.01 2.488 2.24 2.488 2.24 3.113 5.032v3.29l.036 3.803-.037 4.185q.006 2.22.02 4.44c.017 4.072.003 8.145-.016 12.217-.016 4.39-.002 8.78.007 13.17.014 8.603 0 17.206-.025 25.809q-.03 10.486-.037 20.973-.031 32.958-.14 65.916c-.054 17.343-.063 34.684-.05 52.027q.02 26.697-.064 53.393a6098 6098 0 0 0-.03 29.988q.026 12.764-.056 25.529c-.028 4.343-.041 8.685-.015 13.029.023 3.976.004 7.949-.047 11.924a195 195 0 0 0 .013 4.317c.142 10.753.142 10.753-3.15 14.342-2.29 1.553-4.51 2.733-7.034 3.856l-3.227 1.944-2.968 1.685-3.386 1.929-3.544 2.005-3.698 2.102A6411 6411 0 0 1 1040 685l-3.431 1.943q-7.416 4.198-14.839 8.385-5.876 3.317-11.73 6.672v2l-2.125.313c-3.266.78-5.922 2.108-8.875 3.687l1 3c-3 1-3 1-6 0-2.504 1.207-2.504 1.207-5.062 2.938C984.187 717 984.187 717 982 717v3l-2.125.313c-3.266.78-5.922 2.108-8.875 3.687v2l-2.129.297c-3.378.827-5.808 2.188-8.808 3.953l-1.777 1.037c-2.1 1.229-4.194 2.47-6.286 3.713q-4.152 2.46-8.305 4.917-2.81 1.665-5.615 3.338a459 459 0 0 1-16.211 9.19c-8.847 4.793-17.621 9.72-26.406 14.624q-3.366 1.878-6.738 3.744a2019 2019 0 0 0-8.85 4.937l-2.69 1.481-2.443 1.378-2.13 1.187c-1.928 1.201-1.928 1.201-2.612 4.204l-2.653.32c-3.485.708-5.82 1.79-8.894 3.551l-3.058 1.74-3.145 1.827-3.191 1.814c-5.357 2.934-5.357 2.934-10.059 6.748-2.196 1.12-4.4 2.192-6.625 3.25-12.41 6.036-24.386 13.113-36.073 20.442C794 825 794 825 792 825l-1 2a134 134 0 0 1-6 3v2l-2.125.273c-4.523 1.144-8.048 3.818-11.937 6.329C768 840 768 840 765.418 839.875c-3.42-1.237-6.334-3.03-9.43-4.914L754 834l-2 1v-3l-2.055-.746c-3.525-1.5-6.775-3.377-10.07-5.317-4.765-2.822-4.765-2.822-9.875-4.937l-2-1.687c-3.452-2.661-7.038-4.616-10.883-6.653a291 291 0 0 1-6.547-3.601l-3.445-1.934-3.18-1.805c-2.963-1.328-4.748-1.615-7.945-1.32v-4h-8l-.062-1.75c-1.23-2.953-3.112-4.028-5.883-5.5-3.432-1.253-6.435-1.004-10.055-.75l-.243-2.321c-.947-3.352-1.88-3.865-4.87-5.538l-2.533-1.442-2.667-1.449-2.63-1.496c-5.29-2.975-5.29-2.975-11.057-4.754l1-1-2.309-1.102c-5.832-2.84-11.315-5.82-16.652-9.507-5.142-3.799-5.142-3.799-11.039-5.391l-1 2h-2v-5l-3.48-1.906q-2.355-1.296-4.707-2.594l-2.48-1.363a228 228 0 0 1-14.395-8.7C585.777 737.183 582.087 736 576 736v-5l-2.75-.875C570 729 570 729 568 727.813c-2.87-1.167-5.042-.485-8 .187v-5l-3.41-1.871q-2.327-1.282-4.653-2.567l-2.46-1.353c-3.981-2.205-7.916-4.447-11.766-6.877l-2-1.254a196 196 0 0 1-3.674-2.384c-4.15-2.62-7.177-3.077-12.037-2.694l3-3h-3l-1 2-2-1 1-3c-1.264-.7-2.537-1.384-3.812-2.062l-2.145-1.16c-2.19-1.08-2.19-1.08-5.043.222l-.23-1.871c-.574-2.287-.574-2.287-2.696-3.29l-2.387-.902c-3.281-1.322-5.988-2.59-8.687-4.937l-1 3-4-1 1-4a2531 2531 0 0 0-7.687-4.875l-2.186-1.395c-6.254-4.37-6.254-4.37-13.44-5.355L464 672v-4c-1.74-1.217-1.74-1.217-3.938-2.125-3.828-2.23-3.828-2.23-4.815-4.954-.271-2.668-.298-5.243-.242-7.925l-.032-3.067c-.026-3.387.005-6.772.035-10.159q-.01-3.638-.032-7.274c-.025-5.84-.016-11.678.008-17.517.026-7.142-.011-14.283-.049-21.424a8333 8333 0 0 1-.07-43.255 24058 24058 0 0 0 0-22.623q-.004-21.414.006-42.828.006-18.25-.001-36.501a72535 72535 0 0 1-.004-47.435v-2.277q.002-7.829-.002-15.656-.004-9.55.003-19.097.004-4.842 0-9.684c-.013-17.422.399-34.793 1.133-52.199l2.33-.907c2.94-1.204 5.545-2.681 8.275-4.304l3.197-1.89L473 293q2.805-1.647 5.613-3.29l2.808-1.643a1995 1995 0 0 1 27.829-16.005l2.896-1.636c3.977-2.247 7.957-4.487 11.96-6.688l3.332-1.863 2.746-1.508L532 259v-3l2.75-.062c6.02-.829 11.347-4.53 16.25-7.938l2-3h3a120 120 0 0 0 6.242-3.395l1.835-1.054c1.936-1.115 3.867-2.24 5.798-3.363q1.94-1.12 3.879-2.237c6.559-3.768 6.559-3.768 13.028-7.688C589 226 589 226 591 226l1-2a141 141 0 0 1 6.375-3.437c6.155-3.204 12.193-6.569 18.188-10.063l2.45-1.427 4.771-2.783c3.126-1.82 6.263-3.62 9.404-5.415l3.304-1.89a692 692 0 0 1 7.89-4.407l2.234-1.238a732 732 0 0 1 4.32-2.372c3.65-1.837 3.65-1.837 6.064-4.968l-2-1h4c2.646-.312 2.646-.312 5-1l1-2a66 66 0 0 1 4.313-2.187c6.092-2.945 11.878-6.35 17.687-9.813l-1-2 2.375-.125c4.449-1.074 7.631-3.137 11.453-5.598C702 161 702 161 704 161l1-3h3c1.931-.864 1.931-.864 3.973-2.098l2.44-1.408 2.65-1.556 5.66-3.286 3.055-1.781c3.397-1.972 6.806-3.922 10.218-5.867q2.639-1.507 5.276-3.017 2.552-1.457 5.107-2.91l3.183-1.827 2.817-1.61c2.72-1.702 5.133-3.619 7.621-5.64 5.874-3.476 5.874-3.476 10-2m-11.062 47.375-2.466 1.383c-7.333 4.129-14.586 8.388-21.826 12.678-5.56 3.286-11.136 6.548-16.708 9.814l-1.889 1.107c-20.704 12.135-41.43 24.233-62.233 36.202-11.248 6.474-22.472 12.984-33.637 19.601-21.42 12.692-43 25.107-64.581 37.524a5182 5182 0 0 0-35.098 20.378l-1.84 1.079-5.254 3.082-3.021 1.773L507 319l-2.472 1.065c-5.437 2.588-5.437 2.588-8.469 7.542-.376 3.369-.425 6.617-.376 10.006l-.062 3.892c-.055 3.56-.048 7.116-.03 10.676.007 3.84-.042 7.681-.083 11.522-.072 7.522-.088 15.044-.083 22.567q.004 9.173-.036 18.347c-.078 19.235-.098 38.47-.074 57.705.018 15.168-.054 30.333-.168 45.5a5585 5585 0 0 0-.153 46.736c.007 8.744-.012 17.487-.097 26.231-.072 7.447-.085 14.89-.022 22.337.031 3.798.035 7.591-.036 11.39-.955 14.576-.955 14.576 3.832 27.653 3.98 3.446 8.333 5.42 13.285 7.093 2.909 1.05 5.428 2.61 8.04 4.25l5.442 3.176 3.028 1.767c8.638 5.034 17.301 10.024 25.966 15.01a1789 1789 0 0 1 20.443 11.972c8.428 5.008 16.92 9.899 25.438 14.75 9.45 5.384 18.864 10.82 28.224 16.359 5.396 3.185 10.806 6.349 16.213 9.516l7.547 4.422 1.921 1.126q6.683 3.917 13.36 7.843c11.473 6.742 22.96 13.451 34.533 20.02 7.763 4.423 15.442 8.986 23.117 13.556a1256 1256 0 0 0 26.15 15.166l2.392 1.352 2.22 1.252c1.85 1.106 3.544 2.308 5.272 3.592 2.557 1.812 2.557 1.812 5.164 1.617 3.478-1.362 6.59-3.185 9.761-5.133a3137 3137 0 0 1 4.56-2.734l2.526-1.518c5.128-3.052 10.305-6.02 15.477-8.998l3.378-1.947a8956 8956 0 0 1 33.394-19.116l7.665-4.375 2.596-1.481q7.231-4.132 14.44-8.304c10.906-6.312 21.832-12.58 32.84-18.715 7.622-4.248 15.2-8.555 22.705-13.01 5.398-3.2 10.84-6.323 16.294-9.427 7.569-4.31 15.107-8.667 22.625-13.062a5571 5571 0 0 1 51.068-29.47c8.5-4.848 16.994-9.702 25.433-14.655l2.105-1.234c3.027-1.68 3.027-1.68 5.707-3.829.097-1.673.124-3.35.123-5.027l.006-3.32-.009-3.694.003-3.888q.002-5.367-.007-10.734-.005-5.778-.002-11.556 0-10.02-.008-20.038-.011-14.486-.012-28.973-.004-23.5-.019-47-.014-22.836-.02-45.67v-2.841l-.005-14.111q-.016-58.575-.05-117.148l-2.378-1.357-12.744-7.274A3255 3255 0 0 1 993 298.5a3262 3262 0 0 0-19.125-11.062 2445 2445 0 0 1-26.697-15.599c-15.037-8.91-30.155-17.681-45.303-26.401a2328 2328 0 0 1-26.552-15.526c-8.135-4.82-16.323-9.543-24.517-14.26-14.995-8.634-29.927-17.374-44.85-26.13q-6.43-3.771-12.864-7.538a5492 5492 0 0 1-8.193-4.807q-4.04-2.375-8.087-4.74l-2.356-1.39c-6.908-4.026-8.866-2.43-15.519 1.328M1068 297l1 2 2-1z"/><path fill="#37F4E0" d="m813.542 321.546 2.928-.002c3.193.003 6.384.034 9.577.065q3.321.012 6.642.018c5.826.015 11.652.054 17.478.098 5.946.041 11.891.06 17.837.08Q885.5 321.87 903 322l-2.885 3.377-1.623 1.9c-3.75 4.332-7.857 8.215-12.255 11.88-2.96 2.562-5.428 5.2-7.847 8.276-9.463 11.64-9.463 11.64-16.18 13.226-6.383.398-12.706-.461-19.042-1.189-17.629-1.743-32.441-.638-46.574 10.637-9.137 7.833-17.453 16.546-25.604 25.384-4.695 5.078-9.545 9.997-14.406 14.915-8.659 8.769-17.193 17.648-25.653 26.61a2231 2231 0 0 1-24.772 25.838l-1.567 1.607q-3.892 3.993-7.787 7.982c-16.173 16.57-32.255 33.224-48.209 50.006l-2.43 2.553a4459 4459 0 0 0-6.652 7.007l-1.978 2.079-1.784 1.889-1.549 1.634c-1.31 1.397-1.31 1.397-2.203 3.389h-2a6856 6856 0 0 1-.777-62.354c-.077-9.652-.183-19.303-.355-28.954q-.227-12.623-.28-25.249c-.019-4.454-.064-8.905-.174-13.358-.693-29.27-.693-29.27 4.777-35.803 3.001-2.736 6.179-4.61 9.857-6.295 3.365-1.701 6.131-4.148 9.014-6.55a119354541.471 119354541.471 0 0 0 5.208-4.083l3.46-2.708a2445 2445 0 0 0 20.02-15.834l1.9-1.518c2.814-2.253 5.62-4.514 8.412-6.794l2.688-2.188 2.297-1.886C698 326 698 326 701 325c.384 6.738.644 13.474.824 20.22q.112 3.435.308 6.864c1.114 20.02 1.114 20.02-4.263 26.16-3.105 2.913-6.478 5.312-10.07 7.588-2.286 1.484-4.257 3.215-6.256 5.063l-3.356 2.917-1.767 1.557C672.227 399 672.227 399 670 399l1 51c5.58-4.301 5.58-4.301 7.875-7.375 1.824-2.253 3.513-3.885 5.707-5.742 4.626-4.006 8.929-8.285 13.23-12.633l2.465-2.476q3.865-3.883 7.723-7.774 5.09-5.13 10.187-10.25l2.318-2.343a226 226 0 0 1 12.733-11.87c2.238-1.952 4.337-4.015 6.418-6.13l2.41-2.434 2.434-2.473c5.09-5.171 10.202-10.204 15.709-14.932 2.56-2.241 4.913-4.633 7.291-7.068a178 178 0 0 1 11.406-10.625c3.135-2.807 6.059-5.819 9.012-8.813a159 159 0 0 1 10.328-9.527c1.846-1.503 1.846-1.503 3.267-3.603 3.798-2.951 7.348-2.46 12.029-2.386M799 439h106l.813 51.375.358 16.177c.059 6.557.059 6.557.07 9.633q.031 3.2.131 6.399c.518 17.533.518 17.533-2.63 22.335-3.412 3.616-7.37 5.8-11.742 8.081a154 154 0 0 0-4.969 3.688q-2.265 1.658-4.531 3.312c-5.463 4.005-10.9 8.034-16.25 12.188-11.517 8.919-23.376 17.377-35.25 25.812-4.048-1.648-6.936-4.479-10.062-7.437l-1.887-1.77c-8.348-7.91-16.42-16.11-24.506-24.285l-1.724-1.737q-1.594-1.606-3.181-3.22a138 138 0 0 0-8.263-7.676c-5.807-5.031-11.16-10.534-16.576-15.977l-3.495-3.498q-4.569-4.576-9.133-9.158-4.64-4.654-9.284-9.304a29384 29384 0 0 1-16.33-16.372A6938 6938 0 0 0 719 490c4.258-5.15 8.759-9.745 13.688-14.25l3.949-3.64 1.74-1.595A160 160 0 0 0 743 466c3.35 1.452 5.505 3.282 8.047 5.887l2.312 2.345 2.391 2.455q2.332 2.385 4.672 4.762l2.08 2.136c2.054 1.986 4.14 3.856 6.302 5.72 4.157 3.611 8.047 7.435 11.915 11.351l2.128 2.14q4.449 4.476 8.89 8.961 3.27 3.296 6.544 6.587l1.986 2.011c3.842 3.862 7.805 7.509 11.928 11.068 2.266 1.98 4.404 4.063 6.524 6.198l2.383 2.393 2.398 2.423 2.492 2.506Q829 547.968 832 551c4.224-1.582 7.014-3.47 10.438-6.437q1.574-1.347 3.152-2.688l1.667-1.418c3.028-2.532 6.134-4.963 9.243-7.394l1.78-1.395c4.58-3.58 4.58-3.58 6.875-5.024 2.023-1.488 2.023-1.488 2.364-3.79l.027-2.509.06-2.89.003-3.03.048-2.79c.052-3.44.07-6.882.093-10.322L868 478h-69z"/><path fill="#195A54" d="M770 125c2.581 1.456 5.06 3.038 7.563 4.625 2.3 1.447 2.3 1.447 4.562 1.875 2.37.632 3.197 1.74 4.875 3.5q2.207 1.417 4.5 2.688l2.344 1.324c2.215 1.196 2.215 1.196 5.156.988v2a603 603 0 0 0 7.438 4.438l2.083 1.275c5.239 3.045 9.427 3.96 15.479 4.287v4q1.871.975 3.75 1.938l2.11 1.09c2.042.928 3.951 1.504 6.14 1.972l-2 1c1.02.56 2.042 1.119 3.094 1.695 9.847 5.421 19.587 11.005 29.283 16.69 9.295 5.443 18.643 10.788 28.007 16.11 5.92 3.37 11.798 6.784 17.597 10.359 2.11 1.284 2.11 1.284 5.019 2.146l2.25 1.875c4.373 3.38 8.207 5.125 13.75 5.125l.625 1.762c1.906 3.103 4.231 4.256 7.375 6.05l3.25 1.895L947 227l2-1 1 3c1.569 1.236 1.569 1.236 3.527 2.262l2.15 1.2 2.26 1.226c.742.415 1.484.83 2.249 1.26 3.698 2.254 3.698 2.254 7.814 3.052l1 2h7l-1 3c7.507 4.742 14.963 9.201 23 13 2 1 2 1 4.125 2.773 3.449 2.671 7.066 4.743 10.875 6.852l2.117 1.195c6.558 3.842 6.558 3.842 13.883 5.18l1 3c5.42 3.686 10.468 5.71 17 5 .563 1.938.563 1.938 1 4l-1 1 2.117 1.059C1059 291 1059 291 1061.437 293c3.592 2.803 6.133 3.12 10.563 3l.188 1.75c.66 2.502.66 2.502 3.324 4.01 2.488 2.24 2.488 2.24 3.113 5.032v3.29l.036 3.803-.037 4.185q.006 2.22.02 4.44c.017 4.072.003 8.145-.016 12.217-.016 4.39-.002 8.78.007 13.17.014 8.603 0 17.206-.025 25.809q-.03 10.486-.037 20.973-.031 32.958-.14 65.916c-.054 17.343-.063 34.684-.05 52.027q.02 26.697-.064 53.393a6098 6098 0 0 0-.03 29.988q.026 12.764-.056 25.529c-.028 4.343-.041 8.685-.015 13.029.023 3.976.004 7.949-.047 11.924a195 195 0 0 0 .013 4.317c.142 10.753.142 10.753-3.15 14.342-2.29 1.553-4.51 2.733-7.034 3.856l-3.227 1.944-2.968 1.685-3.386 1.929-3.544 2.005-3.698 2.102A6411 6411 0 0 1 1040 685l-3.431 1.943q-7.416 4.198-14.839 8.385-5.876 3.317-11.73 6.672v2l-2.125.313c-3.266.78-5.922 2.108-8.875 3.687l1 3c-3 1-3 1-6 0-2.504 1.207-2.504 1.207-5.062 2.938C984.187 717 984.187 717 982 717v3l-2.125.313c-3.266.78-5.922 2.108-8.875 3.687v2l-2.129.297c-3.378.827-5.808 2.188-8.808 3.953l-1.777 1.037c-2.1 1.229-4.194 2.47-6.286 3.713q-4.152 2.46-8.305 4.917-2.81 1.665-5.615 3.338a459 459 0 0 1-16.211 9.19c-8.847 4.793-17.621 9.72-26.406 14.624q-3.366 1.878-6.738 3.744a2019 2019 0 0 0-8.85 4.937l-2.69 1.481-2.443 1.378-2.13 1.187c-1.928 1.201-1.928 1.201-2.612 4.204l-2.653.32c-3.485.708-5.82 1.79-8.894 3.551l-3.058 1.74-3.145 1.827-3.191 1.814c-5.357 2.934-5.357 2.934-10.059 6.748-2.196 1.12-4.4 2.192-6.625 3.25-12.41 6.036-24.386 13.113-36.073 20.442C794 825 794 825 792 825l-1 2a134 134 0 0 1-6 3v2l-2.125.273c-4.523 1.144-8.048 3.818-11.937 6.329C768 840 768 840 765.418 839.875c-3.42-1.237-6.334-3.03-9.43-4.914L754 834l-2 1v-3l-2.055-.746c-3.525-1.5-6.775-3.377-10.07-5.317-4.765-2.822-4.765-2.822-9.875-4.937l-2-1.687c-3.452-2.661-7.038-4.616-10.883-6.653a291 291 0 0 1-6.547-3.601l-3.445-1.934-3.18-1.805c-2.963-1.328-4.748-1.615-7.945-1.32v-4h-8l-.062-1.75c-1.23-2.953-3.112-4.028-5.883-5.5-3.432-1.253-6.435-1.004-10.055-.75l-.243-2.321c-.947-3.352-1.88-3.865-4.87-5.538l-2.533-1.442-2.667-1.449-2.63-1.496c-5.29-2.975-5.29-2.975-11.057-4.754l1-1-2.309-1.102c-5.832-2.84-11.315-5.82-16.652-9.507-5.142-3.799-5.142-3.799-11.039-5.391l-1 2h-2v-5l-3.48-1.906q-2.355-1.296-4.707-2.594l-2.48-1.363a228 228 0 0 1-14.395-8.7C585.777 737.183 582.087 736 576 736v-5l-2.75-.875C570 729 570 729 568 727.813c-2.87-1.167-5.042-.485-8 .187v-5l-3.41-1.871q-2.327-1.282-4.653-2.567l-2.46-1.353c-3.981-2.205-7.916-4.447-11.766-6.877l-2-1.254a196 196 0 0 1-3.674-2.384c-4.15-2.62-7.177-3.077-12.037-2.694l3-3h-3l-1 2-2-1 1-3c-1.264-.7-2.537-1.384-3.812-2.062l-2.145-1.16c-2.19-1.08-2.19-1.08-5.043.222l-.23-1.871c-.574-2.287-.574-2.287-2.696-3.29l-2.387-.902c-3.281-1.322-5.988-2.59-8.687-4.937l-1 3-4-1 1-4a2531 2531 0 0 0-7.687-4.875l-2.186-1.395c-6.254-4.37-6.254-4.37-13.44-5.355L464 672v-4c-1.74-1.217-1.74-1.217-3.938-2.125-3.828-2.23-3.828-2.23-4.815-4.954-.271-2.668-.298-5.243-.242-7.925l-.032-3.067c-.026-3.387.005-6.772.035-10.159q-.01-3.638-.032-7.274c-.025-5.84-.016-11.678.008-17.517.026-7.142-.011-14.283-.049-21.424a8333 8333 0 0 1-.07-43.255 24058 24058 0 0 0 0-22.623q-.004-21.414.006-42.828.006-18.25-.001-36.501a72535 72535 0 0 1-.004-47.435v-2.277q.002-7.829-.002-15.656-.004-9.55.003-19.097.004-4.842 0-9.684c-.013-17.422.399-34.793 1.133-52.199l2.33-.907c2.94-1.204 5.545-2.681 8.275-4.304l3.197-1.89L473 293q2.805-1.647 5.613-3.29l2.808-1.643a1995 1995 0 0 1 27.829-16.005l2.896-1.636c3.977-2.247 7.957-4.487 11.96-6.688l3.332-1.863 2.746-1.508L532 259v-3l2.75-.062c6.02-.829 11.347-4.53 16.25-7.938l2-3h3a120 120 0 0 0 6.242-3.395l1.835-1.054c1.936-1.115 3.867-2.24 5.798-3.363q1.94-1.12 3.879-2.237c6.559-3.768 6.559-3.768 13.028-7.688C589 226 589 226 591 226l1-2a141 141 0 0 1 6.375-3.437c6.155-3.204 12.193-6.569 18.188-10.063l2.45-1.427 4.771-2.783c3.126-1.82 6.263-3.62 9.404-5.415l3.304-1.89a692 692 0 0 1 7.89-4.407l2.234-1.238a732 732 0 0 1 4.32-2.372c3.65-1.837 3.65-1.837 6.064-4.968l-2-1h4c2.646-.312 2.646-.312 5-1l1-2a66 66 0 0 1 4.313-2.187c6.092-2.945 11.878-6.35 17.687-9.813l-1-2 2.375-.125c4.449-1.074 7.631-3.137 11.453-5.598C702 161 702 161 704 161l1-3h3c1.931-.864 1.931-.864 3.973-2.098l2.44-1.408 2.65-1.556 5.66-3.286 3.055-1.781c3.397-1.972 6.806-3.922 10.218-5.867q2.639-1.507 5.276-3.017 2.552-1.457 5.107-2.91l3.183-1.827 2.817-1.61c2.72-1.702 5.133-3.619 7.621-5.64 5.874-3.476 5.874-3.476 10-2m-7.941 3.79-3.17 1.831-3.452 2.004-3.554 2.056a3736 3736 0 0 0-17.07 9.94 1800 1800 0 0 1-33.957 19.415 820 820 0 0 0-19.14 11.01c-6.636 3.93-13.33 7.757-20.029 11.579l-1.8 1.028-9.179 5.233q-8.189 4.669-16.37 9.35l-5.317 3.037a21945 21945 0 0 0-20.833 11.915l-2.52 1.441a3121 3121 0 0 1-16.446 9.321 1574 1574 0 0 0-28.91 16.685 3109 3109 0 0 1-40.187 23.303l-1.772 1.01-1.775 1.013a6530 6530 0 0 0-23.953 13.726l-2.87 1.65a198 198 0 0 0-5.808 3.485c-3.01 1.779-6.05 2.997-9.326 4.213-6.42 2.652-12.117 5.55-16.621 10.965-3.938 9.78-3.101 21.161-2.95 31.54.04 4.353-.047 8.703-.117 13.054-.117 8.512-.115 17.02-.068 25.532.036 6.922.03 13.843-.004 20.766l-.014 2.991-.03 6.018c-.089 18.789-.039 37.575.056 56.364.078 16.098.026 32.19-.118 48.288-.168 18.72-.247 37.436-.19 56.157l.017 5.997.008 2.98c.012 6.907-.04 13.812-.117 20.719-.094 8.429-.09 16.851.033 25.28.06 4.298.08 8.584-.02 12.881-.85 17.301-.85 17.301 6.134 32.33 6.19 5.245 13.502 8.523 20.946 11.614 5.35 2.32 10.292 5.281 15.309 8.239q2.803 1.583 5.613 3.152c8.104 4.547 16.161 9.173 24.224 13.79q3.088 1.765 6.183 3.519c6.566 3.727 13.077 7.53 19.519 11.47 4.504 2.734 9.108 5.26 13.741 7.77 4.496 2.448 8.952 4.965 13.408 7.486l2.961 1.676C594.391 740.337 606.197 747.166 618 754l2.576 1.491 9.172 5.31L637 765l2.967 1.718c12.534 7.254 25.088 14.47 37.704 21.58a2943 2943 0 0 1 18.704 10.64A2448 2448 0 0 0 719.5 812a2905 2905 0 0 1 23.813 13.438l2.615 1.484c3.656 2.083 7.284 4.183 10.83 6.45 1.05.66 2.098 1.322 3.18 2.003.854.565 1.709 1.13 2.59 1.71 2.458 1.144 2.458 1.144 5.117.466 4.896-2.263 9.476-4.977 14.105-7.739l6.488-3.824 3.382-1.997c20.301-11.956 40.84-23.494 61.45-34.908 10.7-5.928 21.318-11.998 31.93-18.083q6.874-3.94 13.75-7.875l1.788-1.024a2684 2684 0 0 1 25.65-14.476c7.487-4.176 14.924-8.417 22.29-12.803 6.214-3.682 12.522-7.188 18.835-10.697 8.727-4.854 17.36-9.832 25.88-15.042 5.835-3.558 11.795-6.836 17.807-10.083 14.779-8.076 29.549-16.152 43.998-24.807 2.25-1.34 4.508-2.664 6.768-3.986l2.397-1.403 4.572-2.67c3.323-1.808 3.323-1.808 6.265-4.134.106-1.897.14-3.798.148-5.697l.023-3.774.01-4.2.022-4.42q.028-6.102.045-12.204.017-5.226.041-10.453c.141-33.018.207-66.037.26-99.055l.026-16.135c.03-17.313.095-34.626.174-51.94q.12-26.642.138-53.284c.009-9.978.033-19.956.095-29.934.053-8.497.076-16.994.059-25.491-.008-4.338 0-8.674.045-13.01q.061-5.955.01-11.91-.008-2.154.034-4.31c.36-7.777.36-7.777-3.11-14.336-2.286-1.55-4.498-2.733-7.02-3.847l-2.752-1.652-2.314-1.286-2.684-1.5-2.812-1.562c-8.34-4.67-16.63-9.416-24.876-14.25a1368 1368 0 0 0-23.535-13.492c-12.962-7.254-25.816-14.69-38.593-22.265-16.166-9.583-32.427-19.001-48.711-28.38a4030 4030 0 0 1-22.035-12.8 2528 2528 0 0 0-25.263-14.565 1084 1084 0 0 1-15.487-8.998c-7.376-4.363-14.808-8.627-22.25-12.875l-1.804-1.03q-7.347-4.191-14.698-8.379-6.219-3.543-12.436-7.091l-3.47-1.979a2344 2344 0 0 1-27.084-15.732l-2.833-1.664-2.49-1.469c-3.328-1.833-4.617-.094-7.814 1.758M1068 297l1 2 2-1z"/><path fill="#56F5EB" d="M778 132c2.065 1.17 4.145 2.31 6.229 3.447 7.728 4.22 15.36 8.603 22.971 13.031 6.542 3.803 13.11 7.559 19.683 11.306 14.43 8.226 28.785 16.575 43.116 24.973 10.792 6.324 21.6 12.61 32.501 18.743 10.885 6.124 21.677 12.402 32.453 18.716q6.199 3.627 12.405 7.24c7.722 4.5 15.441 9.007 23.142 13.544 15.548 9.154 31.12 18.255 46.845 27.1 9.016 5.081 17.952 10.295 26.882 15.525q5.637 3.301 11.296 6.563l2.617 1.507q2.397 1.38 4.798 2.755l2.164 1.245 1.854 1.063L1069 300l3.079 1.2c2.44 1.665 2.874 2.576 3.484 5.51.226 3.78.252 7.538.22 11.322q.012 2.214.034 4.427c.03 4.062.024 8.122.011 12.184-.007 4.378.02 8.755.042 13.133.039 8.579.044 17.157.037 25.736q-.007 10.457.013 20.915l.005 3.004.011 6.041c.033 18.896.026 37.791.008 56.687-.016 17.294.018 34.587.075 51.881q.088 26.622.072 53.244c-.006 9.968.002 19.936.044 29.904q.056 12.729.004 25.458c-.018 4.331-.021 8.661.015 12.992q.046 5.946-.02 11.891-.011 2.153.024 4.305c.167 10.724.167 10.724-3.129 14.312-2.289 1.552-4.505 2.735-7.029 3.854-1.01.602-2.021 1.204-3.063 1.823l-2.722 1.509-3.081 1.715-3.197 1.765-6.71 3.735L1041 682a1092 1092 0 0 0-30.026 17.309 449 449 0 0 1-16.163 9.166c-4.921 2.67-9.802 5.413-14.686 8.15l-3.29 1.843a3437 3437 0 0 0-28.274 16.064c-4.351 2.494-8.706 4.98-13.061 7.468l-5.277 3.016-10.227 5.843a35871.026 35871.026 0 0 1-7.622 4.355q-6.75 3.855-13.495 7.72c-22.616 12.957-22.616 12.957-33.95 19.208-7.48 4.138-14.89 8.397-22.306 12.648q-12.643 7.244-25.373 14.335a1395 1395 0 0 0-24.937 14.25l-3.028 1.762c-4.26 2.484-8.503 4.982-12.687 7.59l-1.945 1.186a407 407 0 0 0-4.848 3.024C767 838 767 838 764.246 837.548c-4.53-2.159-8.775-4.69-13.058-7.297a905 905 0 0 0-25.063-14.5l-3.17-1.767-6.098-3.392c-4.147-2.31-8.284-4.636-12.42-6.966l-2.02-1.138L698 800v-2c13.218 4.067 13.218 4.067 18 9q1.993.53 4 1l1 2a161 161 0 0 0 7 3v2l6 1v2l3.438.813L741 820l1 3 1.7-.738c2.3-.262 2.3-.262 4.632 1.32l2.48 2.23c4.074 3.459 6.947 5.277 12.188 6.188v3c4-.975 6.49-2.282 9.438-5.062 3.48-3.194 5.891-3.747 10.562-3.938v-2h4v-2h2v-2c4.47-4 4.47-4 7-4l1-2h3v2h2l1-3c3.228-2.152 4.284-2.2 8-2l1-6c1.938-.562 1.938-.562 4-1l1 1c.773-.96.773-.96 1.563-1.937 3.096-2.62 5.458-2.757 9.437-3.063v-2l1.938-.687c6.253-2.68 11.832-5.954 17.062-10.313 3.543-2.362 6.931-3.762 11-5l3-1v-2l2.313-.75c2.782-1.03 2.782-1.03 4.187-3.312 1.975-2.552 3.407-2.334 6.5-2.938l1.813-1.934c2.573-2.43 4.322-2.887 7.75-3.629 3.906-.853 5.735-1.542 8.437-4.437a84 84 0 0 1 5.063-2.75l2.66-1.36L902 757l2 1v-3l3.438-.875L911 753l1-2h5l.813-1.812c1.185-2.185 2.368-3.52 4.187-5.188l2-2 3-1 1 2 1.75-1.5C932 740 932 740 936 740v-4l2.875-1.187C946.308 731.6 952.92 728.389 959 723c3.92-2.96 6.079-4.399 11-4l3-1v-2l2.875-.187L979 715a125 125 0 0 0 2-5c2.625-.812 2.625-.812 5-1v-2q3.093-1.44 6.188-2.875l3.48-1.617a100 100 0 0 1 6.195-2.578c2.305-.731 2.305-.731 3.137-2.93l5 1v-2l2-1.187c4.09-2.472 7.467-5.613 11-8.813l1 2 1.063-1.25c1.813-1.638 3.433-2.645 5.562-3.812 3.408-1.543 3.408-1.543 4.375-3.938 3.284-.95 4.697-1.101 8 0v-2a769 769 0 0 1 5-3q1.544-1.423 3.063-2.875c3.895-3.459 8.22-5.075 13.07-6.852 3.338-1.482 5.438-2.505 7.867-5.273.632-3.25.517-6.391.375-9.687l-.043-2.667c.251-4.152.251-4.152-1.332-7.646a57 57 0 0 1-.098-4.035l.01-2.451.025-2.577.014-2.587q.02-3.175.049-6.35h2l-2-10h2v-5h-2l.563-2.812c.678-3.201.678-3.201-.563-6.188l.5-2.375c.548-2.876.223-4.814-.5-7.625h2v-4h-2v-2h2q-.16-41.554-.34-83.108a80694 80694 0 0 1-.157-38.587q-.065-16.812-.14-33.625-.04-8.905-.072-17.81-.03-8.378-.071-16.754-.015-3.079-.023-6.158-.014-4.196-.039-8.39l-.003-2.477c-.026-3.542-.259-6.677-1.155-10.091-.122-2.675-.045-5.32 0-8h1v-2.312c0-4.038.292-7.707 1-11.688l-2-1 1-1c.1-2.037.13-4.078.133-6.117l.004-3.778-.012-3.98.012-3.957-.004-3.785-.004-3.488c0-2.963 0-2.963-1.129-5.895.438-2.187.438-2.187 1-4q-1.87-1.228-3.75-2.437l-2.11-1.372c-2.07-1.152-3.827-1.738-6.14-2.191v-2l-2.187-.809c-3.704-1.568-6.931-3.69-10.313-5.851-2.552-1.368-4.68-1.8-7.5-2.34a90 90 0 0 1-4-4h-2l-1-2c-3.458-2.498-5.737-3.365-10-3l-1-4h-4c-2.48-.93-3.85-1.832-5.625-3.812-4.11-3.785-9.53-7.046-15.191-7.329L995 264l-.812-2.375c-1.036-2.906-1.036-2.906-4.188-4.625-1.99-.39-3.99-.732-6-1v-2l-1.617-.883c-6.5-3.576-12.85-7.369-19.193-11.214q-2.97-1.798-5.94-3.59l-1.897-1.154c-3.709-2.237-7.47-4.233-11.353-6.159a289 289 0 0 1-5.375-3.187l-2.648-1.606L934 225l-2 2-2.062-2.312c-2.493-2.28-3.658-3.152-6.625-4.313C920 219 920 219 918 216a76 76 0 0 0-5-1c-2.25-.812-2.25-.812-4-2l-1-4-9-1-1-5c-4.11-1.412-4.11-1.412-8.312-2.5L888 200l-1-2-2-1c-2-1-2-1-3-3a76 76 0 0 0-5-1l-3-1a100 100 0 0 0-5 0l-.562-2.75c-1.88-4.248-4.47-5.307-8.438-7.25q-2.25-1.342-4.5-2.687c-3.92-2.192-7.036-3.028-11.5-3.313v-4l-1.812-.375C840 171 840 171 837 169v-2h-5v-2l-3.25-.25c-4.225-.845-4.905-1.727-7.75-4.75a442 442 0 0 0-7-3l-3-3a194 194 0 0 0-5.168-2.18c-2.826-1.265-5.27-3.093-7.832-4.82l-2.687-1.062c-2.474-1.003-3.49-2.04-5.313-3.938a159 159 0 0 0-5-3l-3-2c-2.318-.326-4.604-.44-6.941-.559C773 136 773 136 771 133v-3l-1.863.656-2.45.844-2.425.844C762 133 762 133 759 133c1.158-3.474 2.57-4.882 5.816-6.574 4.914-.958 9.215 3.07 13.184 5.574m148 611 1 2Z"/><path fill="#39F5E1" d="M702 505h1v88c-7.87-4.498-7.87-4.498-11.023-6.996l-2.13-1.674-2.222-1.768-4.766-3.746-2.435-1.917c-3.826-2.997-7.686-5.95-11.549-8.899l-2.04-1.56c-4.592-3.507-9.208-6.98-13.835-10.44 1.493-3.476 3.48-5.733 6.143-8.401l2.588-2.608 2.8-2.788 2.87-2.875q3-3.006 6.012-6.001a2398 2398 0 0 0 7.707-7.715q2.958-2.966 5.924-5.924a2069 2069 0 0 0 4.225-4.235l2.588-2.57 2.284-2.277C698 509 698 509 700 509z"/><path fill="#76FDFD" d="M503 278c0 3 0 3-1.355 4.535-3.47 2.893-6.375 4.903-10.645 6.465-2.722 1.58-5.352 3.3-8 5l-4 2.438c-3.597 2.223-6.873 4.745-10.14 7.425C467 305 467 305 463 305c-2.558 8.525-3.144 13.732-.187 22.375.204 2.858-.3 4.171-1.313 6.813-1.884 5.104-1.578 9.532-.5 14.812l1 2c-.559 2.164-.559 2.164-1.437 4.625l-.872 2.477L459 360h2c1.861 3.123 2.185 5.038 1.688 8.625l-.301 2.352C462 373 462 373 461 375a58 58 0 0 0-.098 4.027l.01 2.4.026 2.51.013 2.499q.014 2.3.033 4.603c.014 1.653.016 3.307.016 4.961l.063 3.375c-.053 3.06-.346 5.666-1.063 8.625l3-1q.08 3.625.125 7.25l.05 2.066c.052 5.301.052 5.301-1.173 7.365-1.552 3.592-1.266 7.253-1.232 11.1v2.578q.006 2.692.024 5.386c.018 2.745.02 5.49.02 8.235q.007 2.62.018 5.239l.003 2.484c-.002 4.23-.002 4.23.737 8.373C462 469 462 469 461 471.75c-1.043 3.388-.853 5.643-.297 9.105.797 5.757.463 11.463-.703 17.145h2l-.562 2.563c-.473 3.712-.004 6.757.562 10.437l-1 2c-.127 3.374-.115 6.437.563 9.75C462 525 462 525 461 528l.5 2.313c.595 3.2.045 5.476-.5 8.687-.367 6.161.252 11.057 2 17-.312 2.563-.312 2.563-1 5-.782 3.83-.964 6.265 0 10-.3 1.673-.636 3.34-1 5-.149 3.13-.002 4.994 1 8l-.504 1.727c-.971 4.451.475 9.11 1.227 13.546.292 3.93-.367 6.087-1.723 9.727-.203 2.676-.203 2.676-.062 5.25.158 4.557.158 4.557-.938 6.75l2 1-1 3 .5 1.938c.5 2.062.5 2.062 0 4-.66 2.074-.66 2.074-.043 4.226.663 3.464.713 6.748.73 10.274l.043 3.87c-.224 3.599-1.051 6.315-2.23 9.692.846 2.2.846 2.2 3.188 3.063 2.829 1.048 2.829 1.048 6 1.312L472 664c1.188 2 1.188 2 2 4l3 1 1.688 1.875c3.167 2.91 6.244 3.769 10.312 5.125v2c.638.182 1.276.364 1.934.55l2.503.763 2.497.738L498 681l1 3 2.25.375c2.591.589 4.437 1.357 6.75 2.625l2.063.938C512 689 512 689 513.379 690.438c1.742 1.678 3.322 2.58 5.496 3.625l2.133 1.035c2.094.979 2.094.979 4.742 1.902 2.724 1.21 4.185 2.87 6.25 5 3.794 2.666 7.522 3.859 12 5v3l3.188.813c3.43 1.068 5.808 2.29 8.812 4.187l2.563.938C561 717 561 717 562.75 718.813 567.282 723.218 572.77 726 579 727v2l5-1 .063 1.75c1.514 3.634 4.497 4.499 7.937 6.25l1-2 2 3 3 1v2c2.937 1.523 5.917 2.801 9 4v2l2.813.375C613 747 613 747 616 749v2l2.012.742c3.732 1.571 7.242 3.456 10.8 5.383l2.1 1.129q2.545 1.37 5.088 2.746v2l6 1v2c-4.503-.585-7.952-2.434-11.812-4.687l-2.073-1.187A1252 1252 0 0 1 621 756l-2.72-1.586a8236 8236 0 0 1-11.915-6.964 1408 1408 0 0 0-21.553-12.325c-7.124-4.001-14.138-8.108-21.066-12.441-3.481-2.135-7.043-4.081-10.64-6.012-19.158-10.314-37.986-21.239-56.765-32.223a3001 3001 0 0 0-16.536-9.601l-1.808-1.042q-4.353-2.506-8.709-5.008l-3.151-1.814-2.79-1.602A114 114 0 0 1 458 662c-.4-2.528-.4-2.528-.436-5.798l-.063-3.765-.023-4.174q-.028-2.203-.06-4.406c-.053-4.05-.087-8.1-.118-12.15-.029-3.471-.069-6.941-.109-10.412a8322 8322 0 0 1-.328-37.31l-.02-2.975c-.137-19.494-.253-38.987-.333-58.481l-.055-12.865-.014-3.23c-.077-17.25-.247-34.499-.455-51.748a5296 5296 0 0 1-.366-53.136c-.022-9.945-.084-19.887-.25-29.83-.14-8.475-.2-16.944-.153-25.419.022-4.323.005-8.637-.118-12.959-.679-25.138-.679-25.138 5.196-32.037 5.627-4.581 11.797-7.404 18.53-9.992 5.348-2.212 10.217-5.226 15.175-8.188q2.621-1.503 5.25-2.992l2.203-1.254zm-43 360 1 2Z"/><path fill="#1D675F" d="M456 302h1l.005 2.202a483249 483249 0 0 0 .367 144.856l.009 3.125q.065 25.02.124 50.042.06 25.686.132 51.372.044 15.841.078 31.683.024 10.873.058 21.746.02 6.267.03 12.533.01 5.75.032 11.501.008 3.039.01 6.077c.027 6.201.153 12.395.45 18.589l.156 3.42c.626 3.252 1.321 4.178 3.986 6.057A73 73 0 0 0 467 667.25q2.502 1.2 5 2.41l2.559 1.176c3.62 1.726 7.015 3.771 10.441 5.851q2.086 1.24 4.176 2.473l2.276 1.344c9.478 5.563 19.02 11.018 28.548 16.496l2.16 1.242c8.606 4.944 17.252 9.818 25.895 14.698a5543 5543 0 0 1 27.374 15.59 6651 6651 0 0 0 7.637 4.36c34.05 19.423 34.05 19.423 50.621 29.235 8.423 4.983 16.95 9.779 25.477 14.582A3575 3575 0 0 1 680.754 789q5.535 3.168 11.086 6.313l2.902 1.648q2.752 1.563 5.508 3.12l2.504 1.423 2.197 1.244c2.124 1.298 4.082 2.728 6.049 4.252-4 0-4 0-6.937-1.5-3.071-1.504-4.716-1.795-8.063-1.5v-4h-8l-.062-1.75c-1.23-2.953-3.112-4.028-5.883-5.5-3.432-1.253-6.435-1.004-10.055-.75l-.243-2.321c-.947-3.352-1.88-3.865-4.87-5.538l-2.533-1.442-2.667-1.449-2.63-1.496c-5.29-2.975-5.29-2.975-11.057-4.754l1-1-2.309-1.102c-5.832-2.84-11.315-5.82-16.652-9.507-5.142-3.799-5.142-3.799-11.039-5.391l-1 2h-2v-5l-3.48-1.906q-2.355-1.296-4.707-2.594l-2.48-1.363a228 228 0 0 1-14.395-8.7C585.777 737.183 582.087 736 576 736v-5l-2.75-.875C570 729 570 729 568 727.813c-2.87-1.167-5.042-.485-8 .187v-5l-3.41-1.871q-2.327-1.282-4.653-2.567l-2.46-1.353c-3.981-2.205-7.916-4.447-11.766-6.877l-2-1.254a196 196 0 0 1-3.674-2.384c-4.15-2.62-7.177-3.077-12.037-2.694l3-3h-3l-1 2-2-1 1-3c-1.264-.7-2.537-1.384-3.812-2.062l-2.145-1.16c-2.19-1.08-2.19-1.08-5.043.222l-.23-1.871c-.574-2.287-.574-2.287-2.696-3.29l-2.387-.902c-3.281-1.322-5.988-2.59-8.687-4.937l-1 3-4-1 1-4a2531 2531 0 0 0-7.687-4.875l-2.186-1.395c-6.254-4.37-6.254-4.37-13.44-5.355L464 672v-4c-1.74-1.217-1.74-1.217-3.938-2.125-3.828-2.23-3.828-2.23-4.815-4.954-.271-2.668-.298-5.243-.242-7.925l-.032-3.067c-.026-3.387.005-6.772.035-10.159q-.01-3.638-.032-7.274c-.025-5.84-.016-11.678.008-17.517.026-7.142-.011-14.283-.049-21.424a8333 8333 0 0 1-.07-43.255 24058 24058 0 0 0 0-22.623q-.004-21.414.006-42.828.006-18.25-.001-36.501a72535 72535 0 0 1-.004-47.435v-2.277q.002-7.829-.002-15.656-.004-9.55.003-19.097.004-4.842 0-9.684c-.013-17.422.399-34.793 1.133-52.199"/><path fill="#63F6F1" d="M778 132c2.065 1.17 4.145 2.31 6.229 3.447 7.728 4.22 15.36 8.603 22.971 13.031 6.542 3.803 13.11 7.559 19.683 11.306 14.43 8.226 28.785 16.575 43.116 24.973 10.792 6.324 21.6 12.61 32.501 18.743 10.885 6.124 21.677 12.402 32.453 18.716q6.199 3.627 12.405 7.24c7.722 4.5 15.441 9.007 23.142 13.544 15.548 9.154 31.12 18.255 46.845 27.1 9.013 5.08 17.947 10.292 26.874 15.521q5.674 3.324 11.375 6.602l2.643 1.52q2.437 1.401 4.877 2.795c3.453 1.985 6.778 3.951 9.886 6.462-4.198.35-5.775-.399-9-3-2.147-.705-2.147-.705-4-1v-2l-2.187-.809c-3.704-1.568-6.931-3.69-10.313-5.851-2.552-1.368-4.68-1.8-7.5-2.34a90 90 0 0 1-4-4h-2l-1-2c-3.458-2.498-5.737-3.365-10-3l-1-4h-4c-2.48-.93-3.85-1.832-5.625-3.812-4.11-3.785-9.53-7.046-15.191-7.329L995 264l-.812-2.375c-1.036-2.906-1.036-2.906-4.188-4.625-1.99-.39-3.99-.732-6-1v-2l-1.617-.883c-6.5-3.576-12.85-7.369-19.193-11.214q-2.97-1.798-5.94-3.59l-1.897-1.154c-3.709-2.237-7.47-4.233-11.353-6.159a289 289 0 0 1-5.375-3.187l-2.648-1.606L934 225l-2 2-2.062-2.312c-2.493-2.28-3.658-3.152-6.625-4.313C920 219 920 219 918 216a76 76 0 0 0-5-1c-2.25-.812-2.25-.812-4-2l-1-4-9-1-1-5c-4.11-1.412-4.11-1.412-8.312-2.5L888 200l-1-2-2-1c-2-1-2-1-3-3a76 76 0 0 0-5-1l-3-1a100 100 0 0 0-5 0l-.562-2.75c-1.88-4.248-4.47-5.307-8.438-7.25q-2.25-1.342-4.5-2.687c-3.92-2.192-7.036-3.028-11.5-3.313v-4l-1.812-.375C840 171 840 171 837 169v-2h-5v-2l-3.25-.25c-4.225-.845-4.905-1.727-7.75-4.75a442 442 0 0 0-7-3l-3-3a194 194 0 0 0-5.168-2.18c-2.826-1.265-5.27-3.093-7.832-4.82l-2.687-1.062c-2.474-1.003-3.49-2.04-5.313-3.938a159 159 0 0 0-5-3l-3-2c-2.318-.326-4.604-.44-6.941-.559C773 136 773 136 771 133v-3l-1.863.656-2.45.844-2.425.844C762 133 762 133 759 133c1.158-3.474 2.57-4.882 5.816-6.574 4.914-.958 9.215 3.07 13.184 5.574"/><path fill="#16524B" d="m1071 664 2 2c-14.58 8.442-29.186 16.83-43.863 25.102A2911 2911 0 0 0 1010 702v2l-2.125.313c-3.266.78-5.922 2.108-8.875 3.687l1 3c-3 1-3 1-6 0-2.504 1.207-2.504 1.207-5.062 2.938C984.187 717 984.187 717 982 717v3l-2.125.313c-3.266.78-5.922 2.108-8.875 3.687v2l-2.129.297c-3.378.827-5.808 2.188-8.808 3.953l-1.777 1.037c-2.1 1.229-4.194 2.47-6.286 3.713q-4.152 2.46-8.305 4.917-2.81 1.665-5.615 3.338a459 459 0 0 1-16.211 9.19c-8.847 4.793-17.621 9.72-26.406 14.624q-3.366 1.878-6.738 3.744a2019 2019 0 0 0-8.85 4.937l-2.69 1.481-2.443 1.378-2.13 1.187c-1.928 1.201-1.928 1.201-2.612 4.204l-2.653.32c-3.485.708-5.82 1.79-8.894 3.551l-3.058 1.74-3.145 1.827-3.191 1.814c-5.357 2.934-5.357 2.934-10.059 6.748-2.196 1.12-4.4 2.192-6.625 3.25-12.41 6.036-24.386 13.113-36.073 20.442C794 825 794 825 792 825l-1 2a134 134 0 0 1-6 3v2l-2.125.273c-4.523 1.144-8.048 3.818-11.937 6.329C768 840 768 840 765.418 839.875c-3.42-1.237-6.334-3.03-9.43-4.914L754 834l-2 1v-3l-2.055-.746c-3.525-1.5-6.775-3.377-10.07-5.317-4.765-2.822-4.765-2.822-9.875-4.937l-2-1.687c-5.488-4.23-11.8-7.25-18-10.313v-2c3.391.67 6.011 1.975 9.016 3.668l3.009 1.689 3.225 1.83 3.325 1.872c9 5.085 17.929 10.289 26.807 15.584l2.856 1.689 2.502 1.491c2.99 1.577 2.99 1.577 6.26 2.177 2.735-1.105 2.735-1.105 5.602-2.875l3.383-1.963 3.64-2.162q1.89-1.103 3.782-2.205 3.9-2.27 7.788-4.56c5.645-3.32 11.319-6.589 16.992-9.86l3.212-1.856c13.803-7.967 27.729-15.715 41.67-23.436C863.772 782.155 874.389 776.085 885 770a19938 19938 0 0 1 15.538-8.899 2684 2684 0 0 1 25.65-14.476c7.487-4.176 14.924-8.417 22.29-12.803 6.214-3.682 12.522-7.188 18.835-10.697 8.727-4.854 17.36-9.832 25.88-15.042 5.835-3.558 11.795-6.836 17.807-10.083 14.829-8.103 29.623-16.237 44.136-24.897 5.247-3.104 10.562-6.095 15.864-9.103"/><path fill="#5DF2EB" d="M459 498h3l-.562 2.563c-.473 3.712-.004 6.757.562 10.437l-1 2c-.127 3.374-.115 6.437.563 9.75C462 525 462 525 461 528l.5 2.313c.595 3.2.045 5.476-.5 8.687-.367 6.161.252 11.057 2 17-.312 2.563-.312 2.563-1 5-.782 3.83-.964 6.265 0 10-.3 1.673-.636 3.34-1 5-.149 3.13-.002 4.994 1 8l-.504 1.727c-.971 4.451.475 9.11 1.227 13.546.292 3.93-.367 6.087-1.723 9.727-.203 2.676-.203 2.676-.062 5.25.158 4.557.158 4.557-.938 6.75l2 1-1 3 .5 1.938c.5 2.062.5 2.062 0 4-.66 2.074-.66 2.074-.043 4.226.663 3.464.713 6.748.73 10.274l.043 3.87c-.224 3.599-1.051 6.315-2.23 9.692.846 2.2.846 2.2 3.188 3.063 2.829 1.048 2.829 1.048 6 1.312L472 664c1.188 2 1.188 2 2 4l3 1 1.688 1.875c3.167 2.91 6.244 3.769 10.312 5.125v2c.638.182 1.276.364 1.934.55l2.503.763 2.497.738L498 681l1 3 2.25.375c2.591.589 4.437 1.357 6.75 2.625l2.063.938C512 689 512 689 513.379 690.438c1.742 1.678 3.322 2.58 5.496 3.625l2.133 1.035c2.094.979 2.094.979 4.742 1.902 2.724 1.21 4.185 2.87 6.25 5 3.794 2.666 7.522 3.859 12 5v3l3.188.813c3.43 1.068 5.808 2.29 8.812 4.187l2.563.938C561 717 561 717 562.75 718.813 567.282 723.218 572.77 726 579 727v2l5-1 .063 1.75c1.514 3.634 4.497 4.499 7.937 6.25l1-2 2 3 3 1v2c2.937 1.523 5.917 2.801 9 4v2l2.813.375C613 747 613 747 616 749v2l2.012.742c3.732 1.571 7.242 3.456 10.8 5.383l2.1 1.129q2.545 1.37 5.088 2.746v2l6 1v2c-4.503-.585-7.952-2.434-11.812-4.687l-2.073-1.187A1252 1252 0 0 1 621 756l-2.72-1.586a8236 8236 0 0 1-11.915-6.964 1408 1408 0 0 0-21.553-12.325c-7.124-4.001-14.138-8.108-21.066-12.441-3.481-2.135-7.043-4.081-10.64-6.012-19.158-10.314-37.986-21.239-56.765-32.223a3001 3001 0 0 0-16.536-9.601l-1.808-1.042q-4.353-2.506-8.709-5.008l-3.151-1.814-2.79-1.602A114 114 0 0 1 458 662c-.354-2.807-.354-2.807-.323-6.467l.005-2.034c.009-2.26.039-4.52.07-6.78q.016-2.425.027-4.849c.026-4.396.07-8.793.119-13.19.047-4.59.076-9.181.108-13.772.062-8.699.14-17.397.223-26.095.094-9.9.171-19.801.247-29.702q.236-30.555.524-61.111m1 140 1 2Z"/><path fill="#26786D" d="m1075 303 3 1a255398 255398 0 0 1-.317 153.271l-.008 3.252q-.058 26.096-.102 52.19a65528 65528 0 0 1-.116 53.516q-.043 16.522-.064 33.046-.016 11.317-.052 22.633a4783 4783 0 0 0-.025 13.076q-.003 5.978-.03 11.954a889 889 0 0 0-.004 4.34c.002 1.957-.009 3.913-.02 5.87l-.007 3.302C1077 663 1077 663 1075 665l-3-1 2-2c.309-2.67.309-2.67.262-5.853l.022-3.801-.006-4.216q.008-2.223.018-4.447a3470 3470 0 0 0 .02-12.266c.004-4.404.02-8.807.033-13.21q.034-11.453.048-22.904c.014-11.038.04-22.076.068-33.114q.067-26.86.113-53.721.045-26.098.105-52.197l.007-3.247.037-16.13q.155-66.948.273-133.894"/><path fill="#1C6460" d="M788 137c3.375.547 5.082 1.055 8 3h3v2a603 603 0 0 0 7.438 4.438l2.083 1.275c5.239 3.045 9.427 3.96 15.479 4.287v4q1.871.975 3.75 1.938l2.11 1.09c2.042.928 3.951 1.504 6.14 1.972l-2 1c1.02.56 2.042 1.119 3.094 1.695 9.847 5.421 19.587 11.005 29.283 16.69 9.295 5.443 18.643 10.788 28.007 16.11 5.92 3.37 11.798 6.784 17.597 10.359 2.11 1.284 2.11 1.284 5.019 2.146l2.25 1.875c4.373 3.38 8.207 5.125 13.75 5.125l.625 1.762c1.906 3.103 4.231 4.256 7.375 6.05l3.25 1.895L947 227l2-1 1 3c1.569 1.236 1.569 1.236 3.527 2.262l2.15 1.2 2.26 1.226c.742.415 1.484.83 2.249 1.26 3.698 2.254 3.698 2.254 7.814 3.052l1 2h7l-1 3c7.507 4.742 14.963 9.201 23 13 2 1 2 1 4.125 2.773 3.449 2.671 7.066 4.743 10.875 6.852l2.117 1.195c6.558 3.842 6.558 3.842 13.883 5.18l1 3c5.42 3.686 10.468 5.71 17 5 .563 1.938.563 1.938 1 4l-1 1 2.117 1.059C1059 291 1059 291 1061.437 293c3.592 2.803 6.133 3.12 10.563 3l.313 1.813c.776 2.47 1.758 3.51 3.687 5.187-3.532 0-4.928-.87-7.984-2.59l-2.975-1.667q-7.169-4.111-14.291-8.305a1541 1541 0 0 0-24.25-13.938c-9.103-5.119-18.14-10.345-27.152-15.621A1405 1405 0 0 0 984 252c-13.202-7.512-26.294-15.217-39.375-22.937-8.149-4.808-16.348-9.526-24.547-14.248a3993 3993 0 0 1-22.39-13.002 2526 2526 0 0 0-25.263-14.565 1084 1084 0 0 1-15.487-8.998c-7.376-4.363-14.808-8.626-22.25-12.875l-3.575-2.043a3178 3178 0 0 0-17.028-9.667 4333 4333 0 0 1-7.726-4.365q-1.844-1.041-3.69-2.075-2.573-1.442-5.138-2.897c-.974-.547-1.948-1.095-2.95-1.66-2.564-1.657-4.516-3.431-6.581-5.668m280 160 1 2 2-1z"/><path fill="#5BF8EF" d="m757 132 1 2h-2l-.812 1.813c-2.34 4.308-4.756 5.442-9.29 7.23-2.177 1.098-3.726 2.438-5.523 4.082-2.792 2.524-4.56 3.484-8.375 3.875-3.948 1.105-6.245 2.006-9 5-2.712 1.808-5.275 3.109-8.312 4.313-3.656 1.507-6.472 3.709-9.57 6.132-4.113 3.02-8.655 5.387-13.259 7.57-2.028.958-2.028.958-3.859 2.985a89 89 0 0 1-4 2l-2 1-6 3-2.125 1.102C672 185 672 185 670 185.375c-2.18.49-2.18.49-3.687 2.563-2.981 2.658-5.508 2.907-9.387 3.472L655 192l-1 3h-4l-.75 1.75c-2.112 3.8-4.253 5.814-8.25 7.563-2.901.664-4.27.737-7-.313l-1 3h-3l-.625 1.75c-2.365 3.87-5.838 5.796-10.125 7.063C617 216 617 216 615 215l-.625 1.688c-3.485 5.86-8.043 7.677-14.27 9.492-3.081 1.2-4.86 3.45-7.105 5.82q-2.49.548-5 1c-2.293 1.958-2.293 1.958-4 4l-2-1v-4l2.098-1.155c13.413-7.393 26.759-14.87 39.963-22.634 7.241-4.247 14.542-8.377 21.876-12.461 7.666-4.269 15.285-8.594 22.83-13.072 5.4-3.201 10.84-6.324 16.295-9.428a2025 2025 0 0 0 22.688-13.125c9.444-5.533 18.958-10.929 28.526-16.244A993 993 0 0 0 757 132"/><path fill="#65F2EC" d="M850 635h4v3h2v-2c3.206-1.603 6.521-1.487 10-1 3.438 2.093 5.812 4.111 7 8 .425 5.36.477 8.654-3 13-1.906 2.048-3.168 2.909-5.965 3.215-5.429.088-5.429.088-8.035-1.215v-2h-2v11h-4z"/><path fill="#64F0E9" d="M723 635c3.075 1.703 5.406 3.812 7 7 .121 1.622.175 3.249.188 4.875l.042 2.617c-.346 3.775-1.414 5.816-4.293 8.258-4.062 1.729-7.59 2.09-11.937 1.25-3.068-1.722-5.403-3.806-7-7-.515-4.092-.944-8.236 1.047-11.957 4.337-5.243 8.414-6.052 14.953-5.043"/><path fill="#2E6D66" d="M456 302h1l.005 2.202a483249 483249 0 0 0 .367 144.856l.009 3.125q.065 25.02.124 50.042.06 25.686.132 51.372.044 15.841.078 31.683.024 10.873.058 21.746.02 6.267.03 12.533.01 5.75.032 11.501.008 3.039.01 6.077c.027 6.197.148 12.39.435 18.58l.147 3.415c.67 3.353 1.492 4.288 4.257 6.212a78 78 0 0 0 4.753 2.156q2.464 1.182 4.926 2.367l2.413 1.093c2.91 1.36 5.622 2.973 8.349 4.665l2.32 1.414L487 678l-2 2-3.07-2.004q-2.027-1.28-4.055-2.558l-2.016-1.327c-3.485-2.17-5.142-3.157-9.351-2.888L464 672v-4c-1.74-1.217-1.74-1.217-3.938-2.125-3.828-2.23-3.828-2.23-4.815-4.954-.271-2.668-.298-5.243-.242-7.925l-.032-3.067c-.026-3.387.005-6.772.035-10.159q-.01-3.638-.032-7.274c-.025-5.84-.016-11.678.008-17.517.026-7.142-.011-14.283-.049-21.424a8333 8333 0 0 1-.07-43.255 24058 24058 0 0 0 0-22.623q-.004-21.414.006-42.828.006-18.25-.001-36.501a72535 72535 0 0 1-.004-47.435v-2.277q.002-7.829-.002-15.656-.004-9.55.003-19.097.004-4.842 0-9.684c-.013-17.422.399-34.793 1.133-52.199"/><path fill="#62F0E8" d="M809 626c4 2 6.473 3.723 8 8-2.125.75-2.125.75-5 1l-2.875-2c-3.016-2.326-3.016-2.326-6.75-2-3.807 1.128-5.214 1.675-7.375 5-1.258 4.486-1.484 8.547.188 12.938 1.56 2.992 1.56 2.992 3.5 4.562 3.563.77 6.795.406 10.312-.5 2.62-1.69 2.911-2.653 3.688-5.687L813 645h-9v-3h14v17h-4v-3l-1.875 1.5c-4.41 2.117-8.312 2.21-13.125 1.5-3.437-1.812-3.437-1.812-6-4l-1.75-1.375c-3.327-4.326-3.796-9.35-3.25-14.625 1.663-5.217 4.284-9.198 8.941-12.152 3.995-1.645 7.85-1.604 12.059-.848"/><path fill="#4BE8E2" d="M630 380h2l1 156 22-22 21-21c0 3 0 3-1.626 4.98l-2.305 2.276-2.6 2.589-2.84 2.784-2.885 2.865a2512 2512 0 0 1-7.619 7.529c-4.07 4.011-8.129 8.035-12.186 12.06q-2.131 2.11-4.27 4.211l-2.608 2.58-2.308 2.273c-1.819 1.744-1.819 1.744-2.753 3.853h-2z"/><path fill="#6AF9F6" d="M503 278c0 3 0 3-1.355 4.535-3.47 2.893-6.375 4.903-10.645 6.465-2.722 1.58-5.352 3.3-8 5l-4 2.438c-3.597 2.223-6.873 4.745-10.14 7.425C467 305 467 305 463 305c-2.558 8.525-3.144 13.732-.187 22.375.204 2.858-.3 4.171-1.313 6.813-1.884 5.104-1.578 9.532-.5 14.812l1 2c-.559 2.164-.559 2.164-1.437 4.625l-.872 2.477L459 360h2c1.861 3.123 2.185 5.038 1.688 8.625l-.301 2.352C462 373 462 373 461 375a58 58 0 0 0-.098 4.027l.01 2.4.026 2.51.013 2.499q.014 2.3.033 4.603c.014 1.653.016 3.307.016 4.961l.125 3.563C461 403 461 403 459 405c-.255-5.719-.481-11.436-.59-17.16q-.046-2.437-.094-4.875c-.016-.878-.032-1.756-.05-2.66-.142-6.474-.451-12.93-.822-19.395a708 708 0 0 1-.757-17.852c-.121-3.773-.286-7.534-.555-11.3-1.643-23.63-1.643-23.63 4.111-30.396 5.639-4.536 11.869-7.373 18.562-10.014 5.34-2.253 10.226-5.26 15.195-8.223q2.621-1.503 5.25-2.992l2.203-1.254z"/><path fill="#5EEBE3" d="M619 626h5l1 14 3.125-3.625q1.934-2.19 3.875-4.375l1.625-1.867c3.718-4.047 3.718-4.047 7.25-4.508L643 626c-1.536 3.68-3.782 5.988-6.625 8.75l-2.477 2.422L632 639c1.284 2.743 2.69 5.037 4.602 7.383l1.484 1.847q1.55 1.908 3.101 3.813C645 656.793 645 656.793 645 659c-2.105.438-2.105.438-5 0-2.423-2.068-4.336-4.512-6.312-7l-1.667-2.023A489 489 0 0 1 628 645l-3 1-1 13h-5z"/><path fill="#70F8F4" d="M766 635c3.475 2.07 5.744 4.116 7 8v6h-17l1 4c2.771 1.386 4.933 1.188 8 1l3-2h4c-1.474 4.667-1.474 4.667-3.8 6.14-3.718 1.453-7.277 1.427-11.2.86-3.091-1.776-4.53-3.193-6.312-6.25-1.09-4.36-1.963-8.551.363-12.562 4.421-5.426 8.24-6.035 14.949-5.188"/><path fill="#65F6EE" d="M908 635c2.576 1.885 3.597 3.193 5 6 .083 1.375.107 2.755.098 4.133l-.01 2.441-.025 2.551-.014 2.574q-.02 3.15-.049 6.301h-5l-1-2-2 2c-3.058.56-5.939.527-9 0-2.625-2.125-2.625-2.125-4-5-.062-3.125-.062-3.125 1-6 3.185-3.083 6.067-3.17 10.313-3.187 1.563.047 3.125.105 4.687.187l-2-5c-2.917-.167-2.917-.167-6 0l-2 2c-2.125-.375-2.125-.375-4-1 .313-1.875.313-1.875 1-4 4.222-2.814 8.04-2.683 13-2"/><path fill="#52FDF4" d="M459 498h3l-.562 2.563c-.473 3.712-.004 6.757.562 10.437l-1 2c-.127 3.374-.115 6.437.563 9.75C462 525 462 525 461 528l.5 2.313c.595 3.2.045 5.476-.5 8.687-.367 6.161.252 11.057 2 17-.312 2.563-.312 2.563-1 5-.782 3.83-.964 6.265 0 10-.3 1.673-.636 3.34-1 5-.149 3.13-.002 4.994 1 8l-.504 1.727c-.971 4.451.475 9.11 1.227 13.546.292 3.93-.367 6.087-1.723 9.727-.203 2.676-.203 2.676-.062 5.25.158 4.557.158 4.557-.938 6.75l2 1-1 3 .5 1.938c.5 2.062.5 2.062 0 4-.66 2.074-.66 2.074-.043 4.226.663 3.464.713 6.748.73 10.274l.043 3.87c-.224 3.599-1.051 6.315-2.23 9.692 1.392 2.784 3.156 2.979 6 4v2c-3.375-.547-5.082-1.055-8-3-.354-2.807-.354-2.807-.323-6.467l.005-2.034c.009-2.26.039-4.52.07-6.78q.016-2.425.027-4.849c.026-4.396.07-8.793.119-13.19.047-4.59.076-9.181.108-13.772.062-8.699.14-17.397.223-26.095.094-9.9.171-19.801.247-29.702q.236-30.555.524-61.111m1 140 1 2Z"/><path fill="#113040" d="m654 625 2 1v5l-2 1zm-9 1c2 3 2 3 2 6h7v1l-6 1-1 24c-4.605-3.948-8.245-7.14-12-11.687l-2.375-2.825L631 641c1-3 1-3 3.125-4.25 4.244-2.583 8.62-6.24 10.875-10.75"/><path fill="#6BF4EF" d="M682 626h4v11l3-2c2.121-.371 2.121-.371 4.438-.437l2.308-.122C698 635 698 635 700.27 636.914c2.44 4.351 2.17 8.004 1.98 12.899l-.055 2.677c-.047 2.17-.118 4.34-.195 6.51h-4l-1-19h-8c-3.02 3.02-2.467 6.564-2.625 10.625l-.117 2.43A860 860 0 0 0 686 659h-4z"/><path fill="#195F58" d="m1071 664 2 2c-14.58 8.442-29.186 16.83-43.863 25.102A2911 2911 0 0 0 1010 702v2l-2.125.313c-3.266.78-5.922 2.108-8.875 3.687l1 3c-3 1-3 1-6 0-2.504 1.207-2.504 1.207-5.062 2.938C984.187 717 984.187 717 982 717v3l-2.125.313c-3.266.78-5.922 2.108-8.875 3.687v2h-5l-1-2 1.813-.975c15.242-8.175 15.242-8.175 30.042-17.11 4.62-2.813 9.389-5.341 14.145-7.915 14.828-8.104 29.623-16.237 44.136-24.897 5.247-3.104 10.562-6.095 15.864-9.103"/><path fill="#6BF7EF" d="M824 635h4l.184 3.902.254 5.035.119 2.577.127 2.45.11 2.27c.024 1.79.024 1.79 1.206 2.766 2.958.333 2.958.333 6 0 2.48-3.72 2.444-6.865 2.625-11.187l.117-2.272c.094-1.847.177-3.694.258-5.541h5v24h-5l-1-2-2 2c-6.915.67-6.915.67-10.242-1.383-2.744-4.086-2.183-8.07-2.008-12.867l.055-2.836q.07-3.458.195-6.914"/><path fill="#66F1EB" d="M672 635c2.563 1.813 2.563 1.813 4 4v3c-4.875-.875-4.875-.875-6-2-2-.04-4-.043-6 0l-1 4 2.3.332 3.013.48 2.988.458c2.864.775 3.967 1.36 5.699 3.73.5 2.938.5 2.938 0 6-2.147 2.632-3.79 3.786-7.16 4.383-4.07.204-6.296-.055-9.84-2.196-2-2.187-2-2.187-3-5.187h5v2h9l1-4-2.047-.332-2.703-.48-2.672-.458c-2.822-.8-4.45-1.723-6.578-3.73-.562-2.937-.562-2.937 0-6 3.781-4.635 8.384-5.058 14-4"/><path fill="#29665F" d="M456 528h1l.013 1.835q.156 22.189.326 44.378.083 10.73.158 21.461.065 9.362.14 18.725.039 4.948.072 9.897c-1.734 20.865-1.734 20.865 3.033 39.647 2.153 1.553 4.245 2.542 6.695 3.557q2.464 1.182 4.926 2.367l2.413 1.093c2.91 1.36 5.622 2.973 8.349 4.665l2.32 1.414L487 678l-2 2-3.07-2.004q-2.027-1.28-4.055-2.558l-2.016-1.327c-3.485-2.17-5.142-3.157-9.351-2.888L464 672v-4c-1.738-1.237-1.738-1.237-3.935-2.16-3.83-2.23-3.83-2.23-4.826-4.811-.283-2.522-.32-4.945-.274-7.482l-.042-2.947c-.034-3.284-.01-6.566.014-9.85q-.016-3.492-.04-6.985c-.033-7.462.015-14.922.082-22.383l.063-7.496c.206-25.297.541-50.592.958-75.886"/><path fill="#020C12" d="M743 464c3.61 1.805 5.311 3.084 8.047 5.887l2.312 2.345 2.391 2.455c6.256 6.438 6.256 6.438 12.898 12.465 6.79 5.824 12.94 12.37 19.227 18.723q3.93 3.969 7.867 7.93l1.815 1.84c2.934 3.053 2.934 3.053 6.443 5.355v2l1.656.662c3.11 1.776 5.384 4.19 7.844 6.748l3.188 3.248a2369 2369 0 0 1 4.976 5.123q2.41 2.478 4.836 4.942l1.49 1.556c2.514 2.55 4.36 4.346 8.01 4.721l-4 2-2.076-2.092a6390 6390 0 0 0-7.738-7.777l-3.329-3.349a2774 2774 0 0 0-4.826-4.848l-1.465-1.482a157 157 0 0 0-8.46-7.844c-4.13-3.58-7.987-7.378-11.825-11.264l-2.128-2.14q-4.449-4.476-8.89-8.961-3.27-3.296-6.544-6.587l-1.986-2.011c-3.86-3.88-7.84-7.547-11.982-11.121a104 104 0 0 1-5.595-5.27l-1.836-1.846-1.82-1.846-1.914-1.927A2601 2601 0 0 1 745 467c-2.941 1.407-4.99 2.762-7.25 5.125L735 475l-2-1z"/><path fill="#01080D" d="m701 504 2 1q-4.793 4.797-9.607 9.575-6.513 6.465-13.014 12.943a4830 4830 0 0 1-7.855 7.807 3311 3311 0 0 0-7.623 7.584q-1.45 1.444-2.905 2.884c-1.35 1.335-2.693 2.678-4.036 4.02l-2.323 2.31c-1.856 1.713-1.856 1.713-1.637 3.877a153 153 0 0 0 6.875 5.25q2.212 1.626 4.422 3.258l2.342 1.727c3.879 2.9 7.679 5.897 11.486 8.89 6.138 4.82 12.355 9.471 18.813 13.856 1.388.96 2.73 1.983 4.062 3.019v2c-4.148-1.792-7.552-4.535-11.125-7.25l-2.106-1.589c-6.173-4.672-12.28-9.43-18.371-14.206a294 294 0 0 0-15.43-11.307c-2.106-1.763-2.832-3.19-3.968-5.648a12396 12396 0 0 1 17.89-17.993 5380 5380 0 0 0 8.306-8.354q4.001-4.032 8.014-8.053 1.532-1.538 3.06-3.081 2.134-2.154 4.28-4.296l2.463-2.477C697 508 697 508 699 508z"/><path fill="#0F2B37" d="M718.438 638.438C722 639 722 639 724.5 641c2.136 4.271 1.62 6.373.5 11-1.187 2-1.187 2-3 3-3.228.412-5.347.258-8.375-.937-2.294-2.912-2.126-5.273-1.937-8.899.312-2.164.312-2.164 1.375-4.726 1.937-1.438 1.937-1.438 5.375-2"/><path fill="#0F2B36" d="M864 639c2.375 1.5 2.375 1.5 4 4 .695 3.81.452 6.937-1.062 10.5-2.989 2.313-5.283 1.957-8.938 1.5-2.312-1.657-2.924-2.547-3.398-5.375l.023-2.625-.023-2.625c.91-5.424 4.405-6.088 9.398-5.375"/><path fill="#020D13" d="M729 501c3.733 1.557 6.086 3.85 8.917 6.706l1.44 1.444q2.35 2.364 4.69 4.737 1.643 1.653 3.288 3.304 4.33 4.353 8.651 8.716 6.893 6.956 13.802 13.898 2.395 2.411 4.785 4.83c4.743 4.782 9.53 9.438 14.65 13.817 2.88 2.51 5.56 5.207 8.246 7.92l1.714 1.718a3673 3673 0 0 1 5.317 5.347l3.648 3.663q4.43 4.446 8.852 8.9c-3 0-3 0-5.05-1.725l-2.337-2.404-2.595-2.639-2.706-2.794a2712 2712 0 0 0-5.261-5.38l-2.564-2.613c-2.907-2.858-5.948-5.502-9.1-8.085-.457-.45-.915-.898-1.387-1.36v-2l-1.688-.7c-2.932-1.648-4.94-3.696-7.308-6.085l-1.465-1.47q-2.386-2.397-4.762-4.808l-3.324-3.34a5047 5047 0 0 1-8.73-8.796 9302 9302 0 0 0-13.985-14.08q-2.441-2.458-4.877-4.922l-2.994-3.014c-.87-.878-1.74-1.755-2.635-2.66-2.24-2.254-2.24-2.254-5.232-4.125z"/><path fill="#6EF6F3" d="M879 629h4v6h6v4h-6l1 15 5 1v4c-6.5.368-6.5.368-8.712-1.261-1.564-2.111-1.64-3.15-1.581-5.75l.03-2.296c.024-.785.05-1.571.076-2.38l.04-2.417c.036-1.965.09-3.93.147-5.896h-4v-4h4z"/><path fill="#1D5F5A" d="m559 243 3 1c-2.782 2.157-5.614 4.024-8.656 5.793l-2.81 1.637-3.034 1.757-3.158 1.836a3756 3756 0 0 1-35.542 20.369c-1.688.97-3.365 1.96-5.018 2.99-4.35 2.699-4.35 2.699-6.966 2.21L495 280l2.104-1.174q4.824-2.693 9.646-5.389l3.309-1.845a1764 1764 0 0 0 6.607-3.714 667 667 0 0 1 6.84-3.8l3.322-1.855 3.013-1.66L532 259v-3l2.75-.062c6.02-.829 11.347-4.53 16.25-7.938l2-3h3z"/><path fill="#61F0E7" d="M850 635h4v3h2l1-2 2 2-5 5 1 1 .313 3.75c.44 4.088 1.792 6.261 4.687 9.25l-4 1v-2h-2v11h-4z"/><path fill="#1E6A64" d="m1029 272 1 3c5.42 3.686 10.468 5.71 17 5 .563 1.938.563 1.938 1 4l-1 1 2.117 1.059C1059 291 1059 291 1061.437 293c3.592 2.803 6.133 3.12 10.563 3l.313 1.813c.776 2.47 1.758 3.51 3.687 5.187-3.523 0-4.901-.855-7.95-2.57-.98-.55-1.96-1.1-2.97-1.665q-7.47-4.279-14.892-8.64c-8.38-4.924-8.38-4.924-16.82-9.742l-1.99-1.118q-2.528-1.411-5.062-2.812C1024 275 1024 275 1023 273c3-1 3-1 6-1m39 25 1 2 2-1z"/><path fill="#4FDAD2" d="M735 635h4l1 2 2-2c3.125-.125 3.125-.125 6 0v4l-2.937.938c-2.904.757-2.904.757-4.063 2.062a254 254 0 0 0-.562 8.563l-.131 2.443A1763 1763 0 0 0 740 659h-5z"/><path fill="#5FF8F1" d="M579 234v3c-2.54 2.465-4.555 3.858-7.937 4.938-3.91 1.356-5.944 3.35-9.063 6.062-2.062 1.125-2.062 1.125-4 2-3.475 1.948-3.475 1.948-6.5 4.5-3.56 3.56-7.795 4.998-12.5 6.5l-2.25 1.125C535 263 535 263 533 263c1.29-3.869 2.61-4.212 6.117-6.187l3.255-1.854 3.503-1.959q1.77-1.002 3.539-2.008 3.572-2.03 7.15-4.047c4.874-2.76 9.719-5.568 14.561-8.382l4.633-2.684z"/><path fill="#173D4C" d="M679 625h1v33l-5 1 1.563-2.125c1.685-2.815 1.685-2.815 1.375-6.062-.63-2.872-.63-2.872-2.668-3.918-2.5-.985-4.88-1.534-7.52-2.02l-2.703-.508L663 644l1-5c2.875-.125 2.875-.125 6 0l2 2c2.069.643 2.069.643 4 1v-6l2 1z"/><path fill="#5CF3EC" d="m644 768 6 1v2l3-1v2h3v2l1.793.297c5.023.95 8.526 1.904 12.207 5.703v2c2.652 1.075 5.284 2.095 8 3v2l2.688.25c3.802.86 5.373 2.252 8.312 4.75a134 134 0 0 0 6 3l2 1v2c-5.986-1.63-11.039-4.678-16.375-7.75l-3.004-1.716Q672.806 785.775 668 783l-3.418-1.965a3995 3995 0 0 1-10.02-5.785l-3.194-1.843-2.927-1.704-2.603-1.51L644 769z"/><path fill="#185C56" d="m1071 664 2 2q-5.78 3.346-11.562 6.688l-1.757 1.014a2690 2690 0 0 1-28.556 16.26l-2.715 1.526-2.37 1.33c-1.72.996-3.387 2.08-5.04 3.182-2.187-.375-2.187-.375-4-1l2.148-1.223c8.3-4.732 16.578-9.5 24.852-14.277a5001 5001 0 0 1 27-15.5"/><path fill="#031018" d="M889 635h1v5l-5 1v12l5 1 .563-3.25c.989-3.442 1.502-3.798 4.625-6.125 3.506-1.735 6.939-2.16 10.812-2.625l1-2 1 5-2.047.148-2.703.227-2.672.21c-2.618.421-4.366.962-6.578 2.415-1.096 2.823-1.096 2.823-1 6 1.317 2.837 1.317 2.837 3 5l-4-2-1.562 2.063C888 661 888 661 884.375 661c-3.375-1-3.375-1-4.812-3.062L879 656l3 2c2.324.394 4.658.735 7 1v-4l-2.437.063C884 655 884 655 883 654a185 185 0 0 1-.062-7.562l.013-2.155q.02-2.64.049-5.283h6z"/><path fill="#60E1DE" d="M839 635h5v24h-5c-.73-1.977-1.394-3.98-2-6l1-2c.232-2.713.42-5.408.563-8.125l.13-2.285q.158-2.795.307-5.59"/><path fill="#227F74" d="M668 783a79 79 0 0 1 9.809 4.54l2.745 1.498 2.884 1.587 2.958 1.623C708.28 804.28 708.28 804.28 711 807c-4 0-4 0-6.937-1.5-3.071-1.504-4.716-1.795-8.063-1.5v-4h-8l-.062-1.75c-1.23-2.953-3.112-4.028-5.883-5.5-3.432-1.253-6.435-1.004-10.055-.75l-.312-2.375c-.464-2.955-.464-2.955-3.688-4.625z"/><path fill="#1C635D" d="M788 137c3.375.547 5.082 1.055 8 3h3v2a603 603 0 0 0 7.438 4.438l2.083 1.275c5.239 3.045 9.427 3.96 15.479 4.287v4q1.871.975 3.75 1.938l2.11 1.09c2.042.928 3.951 1.504 6.14 1.972l-2 1 2 2-2 1c-1.99-.874-1.99-.874-4.453-2.29l-2.787-1.586-3.01-1.749-3.077-1.767c-3.23-1.86-6.452-3.733-9.673-5.608l-3.224-1.864a2449 2449 0 0 1-9.151-5.323l-2.88-1.673-2.643-1.558-2.334-1.368C789 139 789 139 788 137"/><path fill="#61F2E9" d="M648 635h5v24h-5z"/><path fill="#56F9F5" d="M775 497c4.182 1.633 6.945 4.709 10.016 7.855l1.741 1.758q2.752 2.78 5.493 5.575a3522 3522 0 0 0 7.203 7.292l1.758 1.775a177 177 0 0 0 10.907 10.088c3.923 3.454 7.53 7.245 11.194 10.97q2.366 2.403 4.739 4.8l2.083 2.119c1.946 1.944 1.946 1.944 4.866 3.768-4 0-4 0-6.347-1.908l-2.575-2.658-1.405-1.43a644 644 0 0 1-4.423-4.567 2178 2178 0 0 0-5.797-5.94l-1.44-1.477c-2.537-2.582-5.116-5.053-7.872-7.399-5.579-4.755-10.682-10.013-15.853-15.203a2365 2365 0 0 0-5.436-5.43l-3.446-3.449-1.647-1.641C775 498.115 775 498.115 775 497"/><path fill="#185955" d="M835 164c3.806.58 6.527 1.664 9.824 3.633l2.832 1.673 3.032 1.819 6.417 3.797 3.389 2.01c5.392 3.189 10.823 6.31 16.253 9.434l5.224 3.01L890 194v2c-5.47-1.535-9.969-4.123-14.812-7l-2.519-1.478a2157 2157 0 0 1-5.153-3.036 1546 1546 0 0 0-7.082-4.154 1276 1276 0 0 1-19.996-11.894l-3.192-1.942L835 165z"/><path fill="#56FDF5" d="M462 407c1.41 2.82 1.17 5.233 1.188 8.375l.042 3.46C463 422 463 422 462 423.65c-1.536 3.612-1.264 7.272-1.23 11.132v2.578q.006 2.692.024 5.386c.018 2.745.02 5.49.02 8.235q.007 2.62.018 5.239l.003 2.484c-.002 4.23-.002 4.23.733 8.373.618 2.751-.393 4.436-1.568 6.924h-1v-66z"/><path fill="#66F0EB" d="M753 641c1.607 3.215 1.057 6.436 1 10h2l1.25 1.5c1.75 1.787 1.75 1.787 4.75 1.813 3.18-.096 3.18-.096 6-2.313h4c-1.474 4.667-1.474 4.667-3.8 6.14-3.718 1.453-7.277 1.427-11.2.86-3.091-1.776-4.53-3.193-6.312-6.25-.922-3.686-.817-6.954-.688-10.75z"/><path fill="#6FF7F3" d="M723 635c3.075 1.703 5.406 3.812 7 7 .146 1.641.221 3.29.25 4.938l.078 2.652c-.385 2.83-1.135 3.661-3.328 5.41-.938-3.634-1.675-7.296-2.402-10.977-.483-2.226-.483-2.226-2.598-4.023-4.336-.315-6.327-.449-10 2l1-4-3 2c2.672-5.916 6.922-5.938 13-5"/><path fill="#1E6A64" d="M710 807c3.461.675 6.13 2.045 9.191 3.773l3.089 1.736 3.283 1.866 3.355 1.893A2397 2397 0 0 1 758 833l-2 2h-3l-1-3a88 88 0 0 0-5-2 320 320 0 0 1-7.125-4.062c-4.765-2.823-4.765-2.823-9.875-4.938l-2-1.687c-5.488-4.23-11.8-7.25-18-10.313z"/><path fill="#143746" d="M891 636h1l2 6 5 1-1.812 1.313c-4.158 3.084-4.158 3.084-5.875 7.875L891 655l-6-2v-12l5-2z"/><path fill="#6DF2EF" d="M640.895 625.625 643 626c-1.536 3.68-3.782 5.988-6.625 8.75l-2.477 2.422L632 639c1.628 3.757 4.014 6.617 6.625 9.75l2.477 2.984L643 654l-2 2-2.012-2.668-2.676-3.52-1.318-1.751A85 85 0 0 0 626 638a569 569 0 0 1 5.688-6l1.607-1.734c4.057-4.182 4.057-4.182 7.6-4.641"/><path fill="#2CBCAF" d="M699 325h2v49l-3-1q-.288-9.771-.537-19.543-.088-3.327-.187-6.653a1940 1940 0 0 1-.253-9.546l-.097-3.018-.061-2.79-.068-2.463C697 327 697 327 699 325"/><path fill="#6BEFEB" d="m902.938 634.625 2.59-.086C908 635 908 635 910.3 636.445c2.552 3.837 2.132 7.31 1.949 11.805l-.055 2.547A434 434 0 0 1 912 657h-1l-1-14h-2l-2-3c-3-.417-3-.417-6 0l-2 2c-2.125-.375-2.125-.375-4-1 .313-1.875.313-1.875 1-4 3.185-2.123 4.245-2.32 7.938-2.375"/><path fill="#62EDE6" d="M799 626c5.07-.36 8.876-.562 13.5 1.75 2.283 2.054 3.479 3.391 4.5 6.25-2.125.75-2.125.75-5 1l-2.875-2c-3.016-2.336-3.016-2.336-6.75-1.937-3.193.886-4.964 1.719-7.375 3.937l-1-4 2.5-1.937L799 627z"/><path fill="#021018" d="M651 554h2a312 312 0 0 1 3.39 3.458c3.31 3.17 7.11 5.768 10.798 8.48a975 975 0 0 1 22.899 17.493c3.074 2.413 6.12 4.744 9.42 6.839L702 592v2c-4.148-1.792-7.552-4.535-11.125-7.25l-2.106-1.589c-6.173-4.672-12.28-9.43-18.371-14.206a294 294 0 0 0-15.43-11.307c-2.08-1.742-2.965-3.15-3.968-5.648"/><path fill="#4EEDEB" d="M826 200c10.491 5.414 20.7 11.261 30.873 17.25l3.014 1.773 2.694 1.592c3.445 1.972 6.524 3.55 10.419 4.385v2c1.96 1.637 1.96 1.637 4 3-3.86-.584-6.617-1.714-9.965-3.703l-2.894-1.704-3.078-1.843-3.176-1.882q-3.288-1.949-6.57-3.903a1031 1031 0 0 0-9.79-5.715l-3.072-1.784q-2.92-1.695-5.85-3.377l-2.636-1.542-2.33-1.349L826 202z"/><path fill="#227C73" d="M559 721c4.34.593 7.413 2.173 11.176 4.379l1.727 1.005a1118 1118 0 0 1 5.41 3.178q1.844 1.079 3.689 2.155 4.505 2.631 8.998 5.283c-3.803 1.15-5.345.516-9-1-2.709-.168-2.709-.168-5 0v-5l-2.75-.875C570 729 570 729 568 727.813c-2.87-1.167-5.042-.485-8 .187l.063-2.375c.124-2.606.124-2.606-1.063-4.625"/><path fill="#153946" d="M654 634h2l.297 2.484.453 3.266.422 3.234c.938 3.416 2.147 4.771 4.828 7.016l-1 2-3 1 2 4-2 2-2-2-2 1z"/><path fill="#04121A" d="M658 637c1.354 2.709 1.065 5.01 1 8 4.295 2.304 8.315 3.782 13 5l-1 5c-6.545.37-6.545.37-8.687-1.375L661 652c-2.1-1.176-2.1-1.176-4-2l3-1-1.437-1.125c-2.137-2.564-2.357-4.58-2.563-7.875z"/><path fill="#1F6961" d="M457 652h1l-.078 2.003c.023 5.308.023 5.308 2.687 9.663 2.22 1.377 4.451 2.5 6.829 3.584q2.463 1.236 4.925 2.477l2.413 1.169c2.877 1.428 5.613 3.047 8.349 4.729l2.32 1.414L487 678l-2 2-3.07-2.004q-2.027-1.28-4.055-2.558l-2.016-1.327c-3.485-2.17-5.142-3.157-9.351-2.888L464 672v-4l-7-4z"/><path fill="#52FDF4" d="M459 360h2c1.861 3.123 2.185 5.038 1.688 8.625l-.301 2.352C462 373 462 373 461 375a58 58 0 0 0-.098 4.027l.01 2.4.026 2.51.013 2.499q.014 2.3.033 4.603c.014 1.653.016 3.307.016 4.961l.125 3.563C461 403 461 403 459 405z"/><path fill="#6FF5F1" d="M909 645c-1 2-1 2-3.285 2.852l-2.778.773-2.785.79L898 650l1 6-4-1c2.918 1.945 4.625 2.453 8 3v1c-3.25.313-3.25.313-7 0-2.5-2.125-2.5-2.125-4-5-.062-3.125-.062-3.125 1-6 4.309-4.309 10.336-3.268 16-3"/><path fill="#1A5D59" d="M676 176h2c-1.157 3.47-1.604 3.629-4.684 5.27l-2.298 1.246-2.456 1.297q-2.472 1.329-4.94 2.664l-2.415 1.301c-3.527 1.953-6.906 4.128-10.262 6.359-2.401 1.065-3.525.758-5.945-.137l2.371-1.242 3.067-1.633 3.058-1.617c2.605-1.265 2.605-1.265 3.504-3.508l-2-1h4c2.646-.312 2.646-.312 5-1l1-2a87 87 0 0 1 5-2.562c3.223-1.39 3.223-1.39 6-3.438"/><path fill="#61F5EF" d="M821 803h5c-3.634 3.05-7.359 5.496-11.473 7.855l-1.833 1.052q-1.905 1.092-3.814 2.176c-1.944 1.105-3.882 2.22-5.82 3.337l-3.72 2.123c-1.12.64-2.24 1.28-3.395 1.938-2.4 1.238-4.311 2.053-6.945 2.519 2.163-2.312 4.376-4.016 7.063-5.687l2.097-1.325C800 816 800 816 802 816l1-3c3-2 3-2 6.625-3l3.375-1 1-2c2.314-.73 4.648-1.401 7-2z"/><path fill="#51F8F6" d="m687 520 2 1-1.208 1.188q-6.216 6.12-12.409 12.264a1841 1841 0 0 1-4.636 4.574 1786 1786 0 0 0-6.65 6.583l-2.105 2.059-1.941 1.94-1.716 1.696c-1.487 1.89-1.929 3.347-2.335 5.696l-3-1c1.346-3 2.835-5.08 5.165-7.392l1.94-1.94 2.09-2.059 2.144-2.135a3014 3014 0 0 1 6.786-6.724l4.598-4.57Q681.354 525.583 687 520"/><path fill="#21716C" d="m559 243 3 1c-5.037 3.934-10.614 6.974-16.125 10.188l-3.363 1.982-3.207 1.873-2.938 1.72C534 261 534 261 532 261v-5l2.75-.062c6.02-.829 11.347-4.53 16.25-7.938l2-3h3z"/><path fill="#56D7D1" d="M764 635c3.626.744 4.917 1.902 7.313 4.75C773 643 773 643 773 649h-17l1-3h13c-1.573-3.933-2.474-5.69-6.187-7.875L761 637z"/><path fill="#6EF8F6" d="M735 635h4l-1 9h1v15h-4z"/><path fill="#0E2630" d="M904.188 647.875 908 648c-.875 5.875-.875 5.875-2 7-2.67.141-5.324.042-8 0l-1-5c3.089-2.06 3.71-2.239 7.188-2.125"/><path fill="#1C6761" d="m1016 695 3 2-9 5v2l-2.125.313c-3.266.78-5.922 2.108-8.875 3.687l1 3-3 1-3-2c1.229-3.686 2.096-3.89 5.438-5.664l2.71-1.461 2.852-1.5q2.782-1.486 5.563-2.977l2.503-1.322c1.88-.93 1.88-.93 2.934-2.076"/><path fill="#6EF4F0" d="M657 652h5v2q2.438.251 4.875.5l2.742.281c3.321.343 3.321.343 6.383-.781-1.75 3.875-1.75 3.875-4 5-4.599.551-7.978.618-12-1.812-2-2.188-2-2.188-3-5.188"/><path fill="#05161C" d="M761.438 638.625c3.562.375 3.562.375 5.5 2.25C768 643 768 643 768 645h-13c1.458-5.832 1.458-5.832 6.438-6.375"/><path fill="#65EEE9" d="M672 635c2.563 1.813 2.563 1.813 4 4v3c-4.875-.875-4.875-.875-6-2-5.635-1.21-5.635-1.21-11 0 2.691-5.959 6.901-5.802 13-5"/><path fill="#174E4A" d="M755 132v2a3675 3675 0 0 1-10.889 6.354q-1.851 1.079-3.7 2.162-2.664 1.558-5.333 3.105l-3.237 1.889c-2.362 1.239-4.24 2.026-6.841 2.49v-2l1.494-.823a5435 5435 0 0 0 9.37-5.178c5.206-2.893 10.342-5.868 15.386-9.038C753 132 753 132 755 132"/><path fill="#185752" d="M532 705c5.291 2.026 10.113 4.7 15.063 7.438l2.72 1.486 2.627 1.447 2.38 1.31c2.194 1.31 4.196 2.749 6.21 4.319-3 1-3 1-6.441-.66q-2.07-1.186-4.121-2.403l-2.159-1.252q-2.145-1.248-4.283-2.51a429 429 0 0 0-5.273-3.042c-5.09-2.936-5.09-2.936-6.723-4.133z"/><path fill="#134751" d="M873 634h1l1 5h4v14h-1v-13c-1.365 1.137-1.365 1.137-1.098 4.16l.035 3.903.028 3.91L877 655h-1l-.367-2.336-.508-3.039-.492-3.023c-.429-2.745-.429-2.745-2.633-4.602-.75-3-.75-3-1-6z"/><path fill="#163B4A" d="m845 635 3 1v25c-2.621 0-4.51-.313-7-1l3-1z"/><path fill="#5CF3E7" d="M880 637h2l1 18 5 1c-1 2-1 2-3.375 2.813C882 659 882 659 880.341 657.79c-1.716-2.291-1.624-3.413-1.415-6.24l.166-2.568.22-2.67.186-2.705q.23-3.304.502-6.607"/><path fill="#52FBEF" d="m488 288 3 1-6 2zm-3 4c-1.794 2.093-3.23 3.11-5.75 4.313-3.403 1.766-5.841 3.799-8.637 6.382C469 304 469 304 466 305v-3c2.117-1.824 2.117-1.824 4.875-3.687l2.742-1.887C476 295 476 295 478 295l1-3c2.575-.997 3.49-1.255 6 0"/><path fill="#185650" d="M997 258c3.8.577 6.486 1.651 9.758 3.652l2.644 1.604 2.723 1.682 2.746 1.67c3.414 2.08 6.802 4.174 10.129 6.392-3 1-3 1-5.635-.248l-3.127-1.9-3.388-2.047-1.757-1.083a637 637 0 0 0-5.353-3.253c-6.302-3.835-6.302-3.835-8.74-5.469z"/><path fill="#25827B" d="M816 152h8v4q1.871.975 3.75 1.938l2.11 1.09c2.042.928 3.951 1.504 6.14 1.972l-2 1 2 2-2 1c-3.005-1.284-5.76-3.075-8.562-4.75l-2.405-1.383-2.287-1.351-2.104-1.242C817 155 817 155 816 152"/><path fill="#5FDCD8" d="M649 635h4v24h-5v-2h3v-21z"/><path fill="#4AEBE7" d="M759 529c3.047 1.358 5.107 2.877 7.426 5.266l1.916 1.949 1.97 2.035c4.716 4.844 9.492 9.421 14.688 13.75l-2 2a7861 7861 0 0 1-10.254-10.199l-3.492-3.472q-2.505-2.488-5.004-4.981l-1.59-1.576A209 209 0 0 1 759 530z"/><path fill="#5EE9E2" d="m633 646 2.063 2.125c2.697 2.721 5.603 5.136 8.582 7.543L645 657v2c-2.227.266-2.227.266-5 0-2.273-1.828-2.273-1.828-4.375-4.25l-2.148-2.39C632 650 632 650 632.273 647.702z"/><path fill="#63F4F0" d="M970 722c-7.058 4.286-14.12 8.57-21.312 12.625l-2.614 1.477L944 737l-2-1 1.513-.87c2.27-1.31 4.534-2.626 6.8-3.942l2.38-1.37 2.295-1.338 2.11-1.221c1.943-1.193 1.943-1.193 3.461-2.836 2.577-2.545 6.112-4.087 9.441-2.423"/><path fill="#051B24" d="M889 635h1v5l-5 1v12l5 1v1c-2 .043-4 .04-6 0-1-1-1-1-1.098-4.379q.01-2.091.035-4.183l.014-2.155q.02-2.64.049-5.283h6z"/><path fill="#6AF3F0" d="M806 642h12v17h-4v-4h2v-12h-10z"/><path fill="#54FBF8" d="m751 372 3 1h-2v3a104 104 0 0 1-5 3 91 91 0 0 0-4.207 4.012l-2.275 2.295c-.77.785-1.538 1.571-2.33 2.38l-2.39 2.417q-2.906 2.94-5.798 5.896l-2-1z"/><path fill="#134C45" d="m1071 664 2 2a1532 1532 0 0 1-10.312 6.063c-.977.58-1.953 1.16-2.96 1.76l-2.841 1.65-2.619 1.539C1052 678 1052 678 1049 677a1486 1486 0 0 1 22-13"/><path fill="#42EBE1" d="M701 506h1c.242 2.27.242 2.27 0 5-1.68 1.95-1.68 1.95-3.875 3.688-.72.58-1.439 1.162-2.18 1.761L694 518l-2 2c-2.125-.375-2.125-.375-4-1q2.43-2.508 4.875-5l2.742-2.812C698 509 698 509 700 509z"/><path fill="#051B20" d="M784 503c5.054 4.156 9.702 8.622 14.267 13.304 2.603 2.692 2.603 2.692 5.733 4.696v2l4 2-2 2q-4.709-4.635-9.4-9.29a1323 1323 0 0 0-3.2-3.16 1281 1281 0 0 1-4.587-4.542l-2.793-2.761C784 505 784 505 784 503"/><path fill="#60F2EC" d="m1059 669 3 1-22 13v-3l3-1v-2c2.237-1.553 4.205-2.815 6.875-3.437 2.242-.594 3.719-1.479 5.688-2.688z"/><path fill="#18544D" d="M778 831v3c-2.012 1.64-2.012 1.64-4.687 3.25l-2.637 1.64c-3.152 1.307-4.48 1.187-7.676.11-2.04-1.27-4.05-2.594-6-4l2-1 2.75 1.563c3.124 1.75 3.124 1.75 6.188.875 3.49-1.639 6.756-3.454 10.062-5.438"/><path fill="#52FDF3" d="m459 318 2 1c2.373 7.143 2.29 12.293-1 19h-1z"/><path fill="#59E6DE" d="M910 641h3v18h-5v-2h2v-12h-2v-2h2z"/><path fill="#185A53" d="M887 770v2l-3.465 1.863-4.472 2.45-2.288 1.224-2.177 1.201-2.016 1.095c-1.903 1.169-1.903 1.169-2.582 4.167l-3-1h2v-4q3.933-2.257 7.875-4.5c.746-.43 1.493-.859 2.262-1.3l2.168-1.231 2-1.143C885 770 885 770 887 770"/><path fill="#53EBE8" d="M582 690c5.832 1.597 10.705 4.522 15.875 7.563l2.664 1.537c4.773 2.783 4.773 2.783 6.461 3.9v1h-7l-1-3c-1.7-1.317-1.7-1.317-3.816-2.445l-2.315-1.325-2.432-1.355q-2.379-1.343-4.753-2.695l-2.14-1.196L582 691z"/><path fill="#091D26" d="M873 643c2 1 2 1 2.695 2.82.483 2.588.695 4.566.305 7.18-2.19 3.029-4.669 5.29-8 7-2.27-.32-2.27-.32-4-1l2.875-1.75c3.64-2.62 4.745-3.922 5.457-8.281A190 190 0 0 0 873 643"/><path fill="#1F726B" d="M916 211c4.22.528 7.374 2.123 11.035 4.16 2.222 1.102 2.222 1.102 5.965.84l1 3-1 2c-4.435-1.31-8-3.047-11.875-5.562l-2.93-1.88L916 212z"/><path fill="#56F8ED" d="M869 187c4.065-.289 6.33.421 9.813 2.5l2.394 1.406L883 192c-1.848 1.055-1.848 1.055-4 2a78 78 0 0 1-5-2c-2.709-.168-2.709-.168-5 0z"/><path fill="#0A1E27" d="M664 639h6l2 6-9-1z"/><path fill="#103240" d="m703 638 4 1-1 6h1c.082 1.582.14 3.166.188 4.75l.105 2.672C707 655 707 655 704 659z"/><path fill="#163B49" d="m796 647 2.063 2c3.582 2.439 5.692 2.333 9.937 2v-3l-4-1h8v5c-3.9 1.3-7.938 1.474-12 1-2.5-1.312-2.5-1.312-4-3z"/><path fill="#163C4B" d="M732 635h1v24l-2-3-2-1v-3l2-1c.18-5.22-.03-9.073-2-14l2 1z"/><path fill="#16524B" d="M710 807c2.953.623 5.275 1.569 7.89 3.066l2.15 1.221 2.21 1.275 2.258 1.288A1659 1659 0 0 1 730 817c-2.34.822-3.559 1.163-5.923.287l-1.968-1.158-2.148-1.24-2.211-1.327-2.258-1.314A653 653 0 0 1 710 809z"/><path fill="#4CFDEC" d="m827 801-1 2h-5v2c-3 2-3 2-7 2l-1 3-2-1 1-4c1.938-.562 1.938-.562 4-1l1 1 1.813-1.937c2.997-2.827 4.232-3.381 8.187-2.063"/><path fill="#4AFEF1" d="M462 407c1.408 2.816 1.208 5.236 1.25 8.375l.078 3.46c-.352 3.394-1.032 4.712-3.328 7.165q-.08-4.187-.125-8.375l-.05-2.406c-.018-2.074.072-4.148.175-6.219z"/><path fill="#1C6C63" d="M611 750c3.699 1.373 6.951 3.064 10.313 5.125l2.675 1.633L626 758c-3.133 1.044-3.99.934-7 0l-1 2h-2l.313-2.312L616 755c-2.445-1.717-2.445-1.717-5-3z"/><path fill="#75F7F3" d="m794 650 3.125 1.938c3.261 1.88 6.095 2.693 9.875 3.062v4c-7.508.37-7.508.37-10-1.5l-1-1.5h4l-2.437-1.312C795 653 795 653 794 650"/><path fill="#01141A" d="M729 501c3.259 1.426 5.402 3.167 7.89 5.695l2.15 2.168 2.21 2.262 2.258 2.285q2.753 2.788 5.492 5.59c-3 0-3 0-4.578-1.253l-1.672-1.74-1.844-1.886-1.906-1.996q-1.872-1.937-3.75-3.867l-1.672-1.746c-1.709-1.726-1.709-1.726-4.578-3.512z"/><path fill="#4FF2EE" d="m673 346 2 1c-2.62 3.772-5.128 5.816-9.184 7.953-2.91 1.678-5.296 3.835-7.816 6.047l-2-1c5.46-4.98 11-9.683 17-14"/><path fill="#20736C" d="M694 799c4.598.539 7.868 1.766 11.875 4.063l2.93 1.66L711 806l-1 2-2.125-.875c-5.773-2.344-5.773-2.344-11.875-3.125v-4z"/><path fill="#67F9F5" d="M949 232c4.766 1.376 8.725 3.468 12.875 6.125l1.797 1.129A803 803 0 0 1 968 242l-1 2a1158 1158 0 0 1-6.75-3.75l-1.922-1.055c-3.625-2.039-6.526-4.053-9.328-7.195"/><path fill="#6DF3EF" d="m825 654 7 3v-2l7-1c-1 2.5-1 2.5-3 5-2.757.643-5.23.542-8 0-2-1.375-2-1.375-3-3z"/><path fill="#112F3A" d="m672 650-1 5-8-2v-3c3.378-.845 5.675-1.108 9 0"/><path fill="#52EADC" d="M841 637h1v20l-4-1-1-3 1.375-2c2.414-4.457 2.371-9.002 2.625-14"/><path fill="#123441" d="M676 636c1.52 1.207 1.52 1.207 3 3 .074 2.262.074 2.262-.312 4.688l-.364 2.449L678 648c-6.852-2.705-6.852-2.705-8-5l2-2c2.125.375 2.125.375 4 1z"/><path fill="#1E6764" d="M656 184c3 1 3 1 5 4a487 487 0 0 1-5.75 3.563l-3.234 2.003C649 195 649 195 646.609 194.715L645 194l2.371-1.242 3.067-1.633 3.058-1.617c2.605-1.265 2.605-1.265 3.504-3.508l-2-1z"/><path fill="#195A53" d="M793 823c-1.135 3.291-1.993 3.996-5.125 5.75L785 830v2l-6 1v-3c2.555-1.824 2.555-1.824 5.875-3.687l3.305-1.887C791 823 791 823 793 823"/><path fill="#50FDED" d="M853 783h3c-1.124 3.26-1.928 3.962-5.062 5.625L848 790l-1 2h-5c3.118-3.296 6.035-5.797 10-8z"/><path fill="#278479" d="M486 679c4.515.531 7.347 2.366 11 5l-1.937.875c-2.215.953-2.215.953-3.063 3.125l-4-1 1-4-3-2z"/><path fill="#020E15" d="m728 478 2 1-10 10c1.617 3.235 2.476 4.706 5 7h-3c-2.25-2.25-2.25-2.25-4-5 .229-4.07 2.738-6.044 5.563-8.75l2.503-2.422z"/><path fill="#227873" d="M961 236c2.352.599 4.686 1.27 7 2l1 2h7l-1 2h-2l-1 3-12-7z"/><path fill="#123644" d="M712 632c1.77-.081 3.541-.14 5.313-.187l2.988-.106c2.699.293 2.699.293 4.554 1.805L726 635c-3.714 1.238-6.17.616-10 0-3.204 0-5.094.743-8 2l2-3h2z"/><path fill="#50F0EB" d="M796 517c6.138 5.184 12.073 10.577 18 16-4.268 0-6.078-2.514-9-5.312l-1.617-1.514A557 557 0 0 1 799 522l-1.875-1.73C796 519 796 519 796 517"/><path fill="#1C605B" d="M835 164c4.423.583 7.516 2.268 11.313 4.563l3.238 1.94L852 172c-1.578.742-1.578.742-4 1a64 64 0 0 1-6.75-3.875l-1.824-1.145c-1.5-.955-2.967-1.963-4.426-2.98z"/><path fill="#71FBF8" d="M858 635h6c-1 3-1 3-3.937 4.5L857 641c-2.296 3.445-2.54 5.938-3 10h-1c-.425-6.169.05-8.973 4-14z"/><path fill="#6FF8F4" d="m869 646 1 2h2v4l-1.875.875c-2.258 1.062-2.258 1.062-4.125 3.125-2.164.195-2.164.195-4.625.125l-2.477-.055L857 656v-1h3.75c2.218-.159 2.218-.159 4.25-1 1.899-2.468 2.985-5.07 4-8"/><path fill="#53E6D9" d="M696 635c2 1 2 1 4 4 .319 1.993.319 1.993.414 4.23l.117 2.432.094 2.525.117 2.561c.094 2.084.177 4.168.258 6.252h-2l-1-18-3 1c0-3 0-3 1-5"/><path fill="#051B25" d="M816 587c3.429 1.51 5.957 3.517 8.75 6l2.422 2.125C829 597 829 597 829 599l2 1c-1.875-.25-1.875-.25-4-1a179 179 0 0 1-2-4l-1.812-.875c-3.273-1.683-4.93-4.24-7.188-7.125"/><path fill="#65F7F3" d="M517 270v3c-3.366 3.357-7.23 5.566-12 6 1.323-3.969 2.911-4.3 6.563-6.187l3.066-1.606z"/><path fill="#25867C" d="M559 721c4.401.503 6.712 2.088 10 5-6.75 2-6.75 2-9 2l.063-2.375c.124-2.606.124-2.606-1.063-4.625"/><path fill="#6BFBF3" d="m908 637 4 2v18h-1l-1-14h-2a88 88 0 0 1-1-5z"/><path fill="#73F9F4" d="M722 635v2h-5v2c-2.5 1.625-2.5 1.625-5 3l1-4-3 2c2.72-6.021 5.9-5.098 12-5"/><path fill="#62F7F2" d="M531 262v3c-2.812 2.063-2.812 2.063-6 4l-3 2h-3c1.323-3.969 2.911-4.3 6.563-6.187l3.066-1.606z"/><path fill="#1B5D59" d="M575 235c-1.312 3.936-2.828 4.287-6.437 6.188l-2.997 1.605C563 244 563 244 561 244v-2c2.555-1.727 2.555-1.727 5.875-3.625l3.305-1.914C573 235 573 235 575 235"/><path fill="#67F6F2" d="m595 225 1 2-3.125 1.75a95 95 0 0 0-7.187 4.5C583 235 583 235 581 235c1.356-4.068 3.948-4.863 7.563-6.687l1.865-.971c1.52-.79 3.045-1.567 4.572-2.342"/><path fill="#64FAF3" d="m609 217 1 2c-5.823 5.976-5.823 5.976-10.125 6.063L597 225c2.303-2.541 4.673-4.071 7.688-5.687l2.449-1.325z"/><path fill="#1C5A54" d="M457 652h1l-.027 2.047c-.005 5.265-.005 5.265 2.652 9.508 2.135 1.231 2.135 1.231 5.375 2.445v2a105 105 0 0 1-9-4z"/><path fill="#63EDE8" d="M648 625h5v6h-5z"/><path fill="#247972" d="m540 254 3 1c-3.509 3.096-6.492 4.742-11 6v-5l3.438-.437c3.37-.175 3.37-.175 4.562-1.563"/><path fill="#1F6964" d="M890 195c4.972 1.764 9.434 4.394 14 7-1.64.684-1.64.684-4 1-2.797-1.215-2.797-1.215-5.75-2.937l-2.984-1.715L889 197z"/><path fill="#61FBF3" d="m741 820 1 3 1.813-.687L746 822c1.75 1.438 1.75 1.438 3 3l-1 2c-3.594-1.335-6.755-2.96-10-5z"/><path fill="#5FF7F0" d="m898 761 2 1a637 637 0 0 1-4.812 3l-2.708 1.688C890 768 890 768 887 768v-2c5.294-4 5.294-4 9-4z"/><path fill="#16534E" d="M994 709v2c-2.082 1.543-2.082 1.543-4.812 3.188l-2.708 1.667C984 717 984 717 981 716c8.75-7 8.75-7 13-7"/><path fill="#51F1EC" d="M539 665c5.31 1.46 9.463 3.983 14 7-3.069 1.534-5.7.55-9 0v-4l-5-2z"/><path fill="#5AEAE0" d="m894 650 .813 1.938c1.074 2.393 1.074 2.393 4.187 3.062 1.666.039 3.334.045 5 0l1 4q-2.19-.425-4.375-.875l-2.46-.492C896 657 896 657 894 655c-.125-2.625-.125-2.625 0-5"/><path fill="#68F5EF" d="M692.563 634.938 696 635l-2 4h-6c0-4.345.125-3.985 4.563-4.062"/><path fill="#56FDF4" d="M465 305h-2c-1.583 5.478-1.583 5.478-3 11h-1v-11c2.49-1.245 3.41-.777 6 0"/><path fill="#1E655F" d="m508 273 2 2a403 403 0 0 1-5.25 3.063l-2.953 1.722C499 281 499 281 495 280z"/><path fill="#21756D" d="M1003 704v2c-2 1.625-2 1.625-4 3l1 2-3 1-3-2c1-3 1-3 3.375-4.687C1000 704 1000 704 1003 704"/><path fill="#1F6861" d="M495 685c5.281.515 8.572 2.255 13 5l-2 2c-1.463-.593-2.92-1.2-4.375-1.812l-2.46-1.02C497 688 497 688 495 685"/><path fill="#6AF4EF" d="M745.063 634.938 748 635v4l-6 1c-.562-1.937-.562-1.937-1-4 1-1 1-1 4.063-1.062"/><path fill="#18514E" d="M497 282a1438 1438 0 0 1-5.875 3.5l-3.305 1.969C485 289 485 289 483 289v-2a500 500 0 0 1 5.313-3.062l2.988-1.723C494 281 494 281 497 282"/><path fill="#50FBEE" d="m771 130 10 5v1l-3.875.188-2.18.105L773 136c-2-3-2-3-2-6"/><path fill="#4EFCEB" d="m945 732 3 1a288 288 0 0 1-3.75 2.5l-2.11 1.406C940 738 940 738 936 738v-2l3.375-1.437c1.892-.816 3.782-1.642 5.625-2.563"/><path fill="#5CECE2" d="M677 649v6c-1.812 1.063-1.812 1.063-4 2l-3-1c1.473-4.665 1.473-4.665 4.063-6.312C676 649 676 649 677 649"/><path fill="#173D4A" d="m830 639 2 1v11l4 2h-4v2l-2-1z"/><path fill="#47FBE8" d="m880.75 767.75 2.25.25c-1 3-1 3-2.812 4.25-2.527.866-3.71.635-6.188-.25 3.323-3.938 3.323-3.938 6.75-4.25"/><path fill="#144A45" d="m1027 689 2 1c-2.374 2.624-4.814 4.446-8 6-2.16-.422-2.16-.422-4-1a546 546 0 0 1 4.875-3.062l2.742-1.723z"/><path fill="#49E4DD" d="M765 487c3.215 1.408 5.322 3.103 7.75 5.625l1.86 1.914L776 496c-3.74 0-4.453-.934-7.187-3.375l-2.168-1.898C765 489 765 489 765 487"/><path fill="#4CFCEB" d="M630 209c-6.286 5.571-6.286 5.571-10 6 1.796-4.735 4.92-7.693 10-6"/><path fill="#4DF9EA" d="M741 141h7c-1.907 1.907-3.844 3.45-6 5.063l-2.125 1.597C738 149 738 149 736 150c1-3 1-3 4-5 .724-2.06.724-2.06 1-4"/><path fill="#173E4B" d="M874 641h3v14h-1z"/><path fill="#5EECE4" d="m638 628 2 1c-6.074 6.705-6.074 6.705-9.937 7.938L628 637c3.17-3.26 6.4-6.222 10-9"/><path fill="#41E9DD" d="M699 325h2l-2 17h-1a766 766 0 0 1-.625-7.375l-.195-2.117c-.141-1.832-.168-3.671-.18-5.508z"/><path fill="#65FAF5" d="M660 189v2l-5 1-1 3c-3.562 1.188-3.562 1.188-7 2v-2q2.684-1.507 5.375-3l3.023-1.687C658 189 658 189 660 189"/><path fill="#50F7E9" d="M689 175c-1.692 3.384-4.788 3.927-8.25 5.125L678 181v-4c3-1 3-1 5-1 2-1 2-1 6-1"/><path fill="#52FEEC" d="m776 827 3 1-3 1v2a125 125 0 0 1-6 4l-2-1c1.26-1.2 2.533-2.384 3.813-3.562l2.144-2.004z"/><path fill="#1C6B63" d="M645 771c4.355.506 7.442 1.384 11 4v2l-8-1 1-2z"/><path fill="#18514C" d="m1071 664 2 2c-1.24.87-2.492 1.72-3.75 2.563l-2.11 1.44C1065 671 1065 671 1061 670z"/><path fill="#69FAF5" d="M458 656c2 3 2 3 3 5a78 78 0 0 0 5 2v2c-3.375-.547-5.082-1.055-8-3-.187-3.125-.187-3.125 0-6"/><path fill="#5AE7DF" d="m662 637 2 1c-.187 2.375-.187 2.375-1 5-2.562 1.313-2.562 1.313-5 2v-6c1.875-1.062 1.875-1.062 4-2"/><path fill="#4CF4EF" d="m751 372 3 1h-2v3a88 88 0 0 1-5 3c-1.751 1.582-1.751 1.582-3 3l-2-1z"/><path fill="#51F5E9" d="M898 203c3.724 1.213 7.378 2.509 11 4v1h-10z"/><path fill="#1E6B65" d="m842 794 3 2-1.875.875c-2.258 1.062-2.258 1.062-4.125 3.125-2.125.625-2.125.625-4 1v-3z"/><path fill="#5CECE4" d="m988 712-11 6 2-5c6.16-2.42 6.16-2.42 9-1"/><path fill="#48FCEA" d="m634 204 5 1-1 3c-2.875.625-2.875.625-6 1l-2-2 3-1z"/><path fill="#1A635C" d="m812 811 3 2-10 5v-3z"/><path fill="#5DF9F2" d="m631 759 5 2v2l6 1v2c-3.375-.547-5.082-1.055-8-3v-2l-3-1z"/><path fill="#4DFDEC" d="m1057 667 2 1-1.937.813c-2.394 1.074-2.394 1.074-3.063 4.187-2.562 1.188-2.562 1.188-5 2 2.051-3.995 3.89-6.103 8-8"/><path fill="#5FECE2" d="M725 649h3v7l-3 1c-1.125-1.75-1.125-1.75-2-4 .875-2.25.875-2.25 2-4"/><path fill="#63EBE5" d="m911 637-2 2h-1l-1 2-.75-1.937c-1.066-2.25-1.066-2.25-3.375-2.813L901 636c4.054-1.158 6.218-.837 10 1"/><path fill="#75F9F7" d="m670 635-4 1v3l-1.812-.625c-2.473-.682-2.473-.682-5.188 1.625 2.545-5.635 5.028-5.11 11-5"/><path fill="#6CEDEC" d="m812 629 4 2v4c-2.375-.312-2.375-.312-5-1l-2-3 5 2z"/><path fill="#58E6DD" d="m810 627 3 2-1 2 3 1-2 2a56.5 56.5 0 0 1-7-4l4-1z"/><path fill="#23726A" d="M484 289a140 140 0 0 1-7 5c-2.187-.375-2.187-.375-4-1a265 265 0 0 1 3.813-2.562l2.144-1.442C481 288 481 288 484 289"/><path fill="#24827C" d="m1029 272 1 3 2 2-3 1c-3.187-1.937-3.187-1.937-6-4 3-2 3-2 6-2"/><path fill="#1A5D59" d="M1014 267c3.791 1.45 7.387 3.152 11 5l-3 2-9-5z"/><path fill="#1A5752" d="M553 250a805 805 0 0 1-4.375 2.5l-2.46 1.406C544 255 544 255 542 255v-2c6.964-4.42 6.964-4.42 11-3"/><path fill="#1E6560" d="M604 220c-3.124 2.523-6.38 4.273-10 6v-3c6.625-4.125 6.625-4.125 10-3"/><path fill="#4FFBEC" d="m908 209 10 5-3 2c-2.937-1.25-2.937-1.25-6-3z"/><path fill="#124B47" d="M944 739q-1.932 1.257-3.875 2.5l-2.18 1.406C936 744 936 744 934 744v-2c6.625-4.125 6.625-4.125 10-3"/><path fill="#163D4E" d="m689 641 3 1-2 2c-.465 3.122-.465 3.122-.625 6.625l-.227 3.602L689 657h-1q-.04-3.72-.062-7.437l-.026-2.143c-.009-1.807.036-3.614.088-5.42z"/><path fill="#193E4B" d="m703 638 4 1-2 11h-1z"/><path fill="#3FE8DC" d="m727 395 3 2c-1.25 1.563-1.25 1.563-3 3-2.187-.312-2.187-.312-4-1z"/><path fill="#072130" d="m877 347 3 1-1 1 1 3h-7z"/><path fill="#195450" d="M520 269a805 805 0 0 1-4.375 2.5l-2.46 1.406C511 274 511 274 509 274v-2c6.964-4.42 6.964-4.42 11-3"/><path fill="#53F5EB" d="m844 172 8 2-2 3-6-1z"/><path fill="#20756C" d="M680 791c4.752.432 6.92 1.328 10 5-4.246 0-6.385-1.818-10-4z"/><path fill="#51F0ED" d="M748 786a690 690 0 0 1 4.938 2.375l2.777 1.336C758 791 758 791 759 793l-7-1v-3l-4-1z"/><path fill="#5BFAF0" d="m975 715 3 1c-1.75 2.063-1.75 2.063-4 4-2.25-.25-2.25-.25-4-1l3-1v-2z"/><path fill="#6DF9F4" d="M676 648v2h-2l-1 3-5-5c3.287-.8 4.71-1.097 8 0"/><path fill="#58F2E7" d="M725 639c1.938.313 1.938.313 4 1 1.097 3.29.8 4.713 0 8-2.686-2.686-3.06-5.376-4-9"/><path fill="#153945" d="m905 639 2 4h-8c2-3 2-3 4.125-3.687z"/><path fill="#123446" d="M625 626h1v6l3 1-4 5z"/><path fill="#3CD3C3" d="M1040 280h7l1 4-7-1z"/><path fill="#6CFAF5" d="M1005 265c4.515.531 7.347 2.366 11 5-3 1-3 1-5.043.04l-2.144-1.415-2.168-1.398L1005 266z"/><path fill="#59EAE5" d="M698 798c3.775 1.09 6.47 1.908 9 5l-2 1c-2.475-1.114-4.679-2.582-7-4z"/><path fill="#51EFE3" d="m867 775 1 3 3 1-6 3c0-4 0-4 2-7"/><path fill="#16504A" d="M624 759c4.874.453 7.39 1.709 11 5-4.874-.453-7.39-1.709-11-5"/><path fill="#4AFCE9" d="m926 741 1 2-1 3-6 1c2.625-4.875 2.625-4.875 6-6"/><path fill="#5AFCF1" d="M1062.813 666.188 1065 667l-1 2c-2.066.633-2.066.633-4.562 1.125l-2.504.508L1055 671c4.308-5.046 4.308-5.046 7.813-4.812"/><path fill="#193D4A" d="M760 640c2.625.188 2.625.188 5 1l1 2h-9z"/><path fill="#1A5F59" d="M588 738c3.735.498 5.812.875 9 3v2c-3.775-1.09-6.47-1.908-9-5"/><path fill="#123443" d="M733 651v8l-2-3-2-1v-3c2-1 2-1 4-1"/><path fill="#5AE7DD" d="m797 629 2 1-2 4h-3c.375-1.937.375-1.937 1-4z"/><path fill="#41DBD4" d="M778 547c3.367 1.393 4.986 2.979 7 6-3 0-3 0-5.187-1.875C778 549 778 549 778 547"/><path fill="#3EDFD5" d="M701 506h1v5l-6 1 2-3h2z"/><path fill="#4EF8F1" d="m692 331 1 3-6 4-2-1z"/><path fill="#5DF6EF" d="M579 234v3c-2.5 2.188-2.5 2.188-5 4 .25-2.375.25-2.375 1-5 2.063-1.312 2.063-1.312 4-2"/><path fill="#1B5756" d="M952 232c3.344.557 6.033 1.352 9 3v2c-3.483-.645-6.062-2.041-9-4z"/><path fill="#21736B" d="M785 828v4l-6 1v-3c3.75-2 3.75-2 6-2"/><path fill="#154C42" d="M821 807c-1 3-1 3-2.875 4.25C816 812 816 812 813 811c5.75-4 5.75-4 8-4"/><path fill="#195953" d="m849 790 3 2c-2.812 1.563-2.812 1.563-6 3l-3-1z"/><path fill="#195853" d="M567 726c3.344.557 6.033 1.352 9 3v2c-3.775-1.09-6.47-1.908-9-5"/><path fill="#58FAEF" d="M519 695c3.147.7 6.026 1.76 9 3v2l-7-2v-2z"/><path fill="#3FCDBB" d="m474 675 6 2v3l-5-1z"/><path fill="#193C49" d="M743 641c2.125.375 2.125.375 4 1h-3l-.375 3.438L743 649l-2 1c-.125-3.375-.125-3.375 0-7z"/><path fill="#3BE1D6" d="m674 447 3 1-5 5-1-3z"/><path fill="#1F6964" d="M1030 277c3.821.53 6.062 1.497 9 4l-3 1c-3.187-1.875-3.187-1.875-6-4z"/><path fill="#4FFBEC" d="m994 259 6 3-1 2h-4z"/><path fill="#226E69" d="m948 226 6 6-3 1-5-5h2z"/><path fill="#4EFAEE" d="M927 221c2.169.506 4 1 6 2l-1 4a283 283 0 0 1-5-5z"/><path fill="#51FAED" d="M918 215c3.375 1.186 5.647 2.276 8 5-2.312.313-2.312.313-5 0-1.812-2.5-1.812-2.5-3-5"/><path fill="#164948" d="M610.313 215.313 612 216c-6.75 4-6.75 4-9 4v-2c4.153-3.115 4.153-3.115 7.313-2.687"/><path fill="#25867B" d="M656 184c3 1 3 1 5 4l-3 2-3-1 2-3-2-1z"/><path fill="#54F7EC" d="M793 141c3.01 2.007 3.63 2.839 5 6-3.653-1.25-4.78-1.671-7-5z"/><path fill="#1D605B" d="M741 140c-1 3-1 3-2.812 4.25-2.527.866-3.71.635-6.188-.25 6.75-4 6.75-4 9-4"/><path fill="#15514B" d="M788 137c4.314.48 6.166 1.746 9 5-4.314-.48-6.166-1.746-9-5"/><path fill="#216E69" d="m760 127 2 1v2c-4.385 3-4.385 3-7 3 1.133-3.4 2.125-4.053 5-6"/><path fill="#3ED1BE" d="m1044 683 3 1-2 3-3-1v-2z"/><path fill="#3CD3C4" d="M1012 264h6l1 2-3 1c-2.187-1.437-2.187-1.437-4-3"/><path fill="#3ED1C0" d="M997 248c1.333 2.667.671 4.167 0 7h-2c.875-5.875.875-5.875 2-7"/><path fill="#39D4C1" d="m656 780 5 1-1 2-4-1z"/><path fill="#3DCEBD" d="m584 737 4 3-3 3z"/><path fill="#39D5C0" d="m1014 700 2 1-2 3-3-1z"/><path fill="#3CD1BE" d="M608 208h3v4h-3zm1 1 1 2Z"/><path fill="#3DD5C4" d="m512 265 3 1-1 3h-2z"/><path fill="#3BD3C0" d="m664 176 3 1-1 3-2-1z"/><path fill="#3BD5C3" d="m840 160-1 3h-3v-2c2-1 2-1 4-1"/><path fill="#39D2BE" d="m713 812 4 2-5 1z"/><path fill="#3CCFBC" d="m590 741 3 1v2l-5-1z"/><path fill="#3AD0C0" d="m474 288 4 1-4 2z"/><path fill="#3ED4C4" d="M505.563 271.938 508 272l-3 2-3-1c1-1 1-1 3.563-1.062"/><path fill="#3CD4C0" d="M640 192c2 1 2 1 3 3l-3 1-1-3z"/><path fill="#3AD3C1" d="M545 716h3v2l-4-1z"/><path fill="#3FCDBC" d="M512 699h3l1 3-4-2z"/><path fill="#3DD6C2" d="m696 160 3 2-3 2z"/><path fill="#3EC4B4" d="m764 120 4 3h-4z"/><path fill="#3CCFBC" d="M988 715h4l-1 3v-2z"/><path fill="#3DCFBE" d="m528 706 3 1-2 2z"/><path fill="#3DD5C5" d="m559 240 4 1-4 1z"/><path fill="#3CD6C4" d="m712 152 4 1-4 1z"/><path fill="#3ED2C0" d="m753 128 4 1h-3l-1 2z"/><path fill="#39C5B8" d="m760 838 3 2-4-1z"/><path fill="#39D5BF" d="m845 796 2 3-3-1z"/><path fill="#3BCEBB" d="m680 793 2 1v2h-2z"/><path fill="#37CFBF" d="m632 766 3 1-3 1z"/><path fill="#39D1BE" d="m602 748 3 1-1 2-2-1z"/><path fill="#39D2BE" d="m975 722 1 3h-2z"/><path fill="#3AD2BF" d="m990 248 2 1v2h-2z"/><path fill="#3BCFBC" d="m536 248 3 1-3 1z"/><path fill="#3DD4C2" d="m980 243 2 4-2-1z"/><path fill="#3ED5C4" d="m554 242 2 3-3-1z"/><path fill="#3FD2C0" d="m616 208 3 1-4 1z"/><path fill="#3CD0C1" d="M877 184h3l-1 2h-2z"/><path fill="#3FD4C4" d="m671 176 4 1-3 1z"/><path fill="#3CD5BF" d="m680 169 2 3-2 1z"/><path fill="#39C5B3" d="m752 837 2 2-2 1z"/><path fill="#39D2BD" d="m744 829 2 2-2 1z"/><path fill="#3CD4C3" d="M703 806h2v2h-2z"/><path fill="#3BD3BF" d="m640 770 3 1h-3z"/><path fill="#3DD1BF" d="m533 710 3 1-3 1z"/><path fill="#3ED1C0" d="m1060 290 3 1-3 1z"/><path fill="#3FD2C3" d="M1021 269h3l-1 2z"/><path fill="#3BD2C0" d="m553 240 4 1Z"/><path fill="#38D5C3" d="m573 232 3 1h-3z"/><path fill="#3BD5C2" d="m584 224 4 1Z"/><path fill="#3BCEBB" d="m926 208 2 1-2 2z"/><path fill="#3BD3C0" d="M613 208v3Z"/><path fill="#3FD7C4" d="m908 203 3 1h-3z"/><path fill="#3DD5C3" d="m624 203 3 1h-3z"/><path fill="#3ED8C6" d="m726 144 3 1h-3z"/><path fill="#40CABA" d="m745 128 2 2-3-1z"/><path fill="#38C7B3" d="M771 838h2l-1 2z"/><path fill="#3DD8C4" d="m728 820 2 1-2 1z"/><path fill="#39D8C5" d="m813 814 1 2-2-1z"/><path fill="#3AD0BE" d="m912 758 1 2-2-1z"/><path fill="#3BD2C0" d="m926 750 3 1Z"/><path fill="#3CD1BD" d="m932 747 3 1Z"/><path fill="#3AD4BF" d="M958 732h2l-1 2z"/><path fill="#3ECBB9" d="M512 702h2l-1 2z"/><path fill="#40CFBF" d="m516 699 2 1-2 1z"/><path fill="#3CCFBC" d="m1039 686 2 2h-2z"/><path fill="#3CCFBE" d="M493 686h2l-1 2z"/><path fill="#3DC8B7" d="m473 676 1 2-2-1z"/><path fill="#3DCBB9" d="M1073 296h2l-1 2z"/><path fill="#3DD2C2" d="m488 280 3 1Z"/><path fill="#3FD3C4" d="m1031 273 1 2-2-1z"/><path fill="#3FD6C6" d="m519 264 2 1-2 1z"/><path fill="#3BDACC" d="m530 257 2 2h-2z"/><path fill="#3DD6C4" d="m569 235 2 1-2 1z"/><path fill="#39D4C1" d="m949 224 2 2h-2z"/><path fill="#40D2C2" d="m924 213 3 1Z"/><path fill="#3BD3C3" d="m905 200 1 2-2-1z"/><path fill="#3CD3C5" d="m860 176 3 1Z"/><path fill="#41D5C4" d="m812 147 2 2h-2z"/><path fill="#3CD5CA" d="M805 144h2l-1 2z"/><path fill="#3BD2C0" d="M738 136h2l-1 2z"/><path fill="#41D1C1" d="m744 133 2 1-2 1z"/><path fill="#385956" d="M1090 43h2l-1 2z"/><path fill="#354C4B" d="m1090 1003 2 1Z"/><path fill="#334B49" d="m1090 995 2 1Z"/><path fill="#324A48" d="m1090 979 2 1Z"/><path fill="#2F4947" d="m1090 963 2 1Z"/><path fill="#2E4847" d="m1090 955 2 1Z"/><path fill="#2C4846" d="m1090 931 2 1Z"/><path fill="#294B47" d="m1090 891 2 1Z"/><path fill="#284D49" d="m1090 883 2 1Z"/><path fill="#2A5551" d="m1090 843 2 1Z"/><path fill="#3CD2BE" d="m747 831 2 1Z"/><path fill="#3ED0C0" d="m736 825 2 1Z"/><path fill="#3BCDBA" d="m797 823 2 1Z"/><path fill="#3BD1BF" d="m827 806 2 1Z"/><path fill="#41D1BD" d="m833 803 2 1Z"/><path fill="#3ACBB9" d="m680 797 2 1Z"/><path fill="#3DD1BD" d="m685 796 2 1Z"/><path fill="#2E6860" d="m1090 795 2 1Z"/><path fill="#3DD0BB" d="m853 793 2 1Z"/><path fill="#3CD6C5" d="m853 791 2 1Z"/><path fill="#2F6C63" d="m1090 787 2 1Z"/><path fill="#35D1BA" d="m656 783 2 1Z"/><path fill="#3BD2C1" d="m643 772 2 1Z"/><path fill="#32756A" d="m1090 771 2 1Z"/><path fill="#3ED5C0" d="m629 764 2 1Z"/><path fill="#3FD2C1" d="m627 763 2 1Z"/><path fill="#3ACFBD" d="m619 758 2 1Z"/><path fill="#3DD7C2" d="m600 747 2 1Z"/><path fill="#3BCEBB" d="m948 741 2 1Z"/><path fill="#38D4C0" d="m952 735 2 1Z"/><path fill="#3CC9BB" d="m966 727 2 1Z"/><path fill="#3BCFBB" d="m987 718 2 1Z"/><path fill="#3D9E91" d="m1090 699 2 1Z"/><path fill="#3ADAC7" d="m1024 694 2 1Z"/><path fill="#3FB0A0" d="m1090 675 2 1Z"/><path fill="#3ECEBB" d="m1060 674 2 1Z"/><path fill="#43C9B7" d="m460 668 2 1Z"/><path fill="#42C9B7" d="m1090 387 2 1Z"/><path fill="#42CAB7" d="m1090 363 2 1Z"/><path fill="#3CD4C3" d="m472 291 2 1Z"/><path fill="#3CD0C0" d="m1057 288 2 1Z"/><path fill="#3DCABA" d="m1054 288 2 1Z"/><path fill="#38D2C2" d="m478 288 2 1Z"/><path fill="#3FD2C2" d="m1032 275 2 1Z"/><path fill="#41D7C9" d="m500 275 2 1Z"/><path fill="#40D3C1" d="m498 274 2 1Z"/><path fill="#3ED0BE" d="m497 272 2 1Z"/><path fill="#3FD6C5" d="m516 266 2 1Z"/><path fill="#3DD4C3" d="m516 264 2 1Z"/><path fill="#3DDCCA" d="m528 259 2 1Z"/><path fill="#3CD7C5" d="m528 256 2 1Z"/><path fill="#3B8F84" d="m1090 235 2 1Z"/><path fill="#39897D" d="m1090 219 2 1Z"/><path fill="#3FD3C0" d="m597 217 2 1Z"/><path fill="#378379" d="m1090 211 2 1Z"/><path fill="#3ED4C1" d="m921 211 2 1Z"/><path fill="#38D4C3" d="m625 200 2 1Z"/><path fill="#42D3C1" d="m636 197 2 1Z"/><path fill="#40D2C2" d="m648 189 2 1Z"/><path fill="#36776D" d="m1090 187 2 1Z"/><path fill="#3BD3C3" d="m874 184 2 1Z"/><path fill="#35746B" d="m1090 179 2 1Z"/><path fill="#39D2C0" d="m668 176 2 1Z"/><path fill="#3ED8C5" d="m852 171 2 1Z"/><path fill="#3DCEB9" d="m704 152 2 1Z"/><path fill="#34665F" d="m1090 147 2 1Z"/><path fill="#43D4C5" d="m729 144 2 1Z"/><path fill="#3CD3BF" d="m721 144 2 1Z"/><path fill="#37D0BD" d="m742 136 2 1Z"/><path fill="#46D5C1" d="m751 131 2 1Z"/><path fill="#43CCBD" d="m760 125 2 1Z"/><path fill="#345955" d="m1090 83 2 1Z"/><path fill="#375854" d="m1090 59 2 1Z"/><path fill="#375855" d="m1090 51 2 1Z"/><path fill="#395957" d="m1090 35 2 1Z"/><path fill="#3A5A58" d="m1090 27 2 1Z"/><path fill="#3C5B5A" d="m1090 11 2 1Z"/></svg>